<?xml version="1.0" encoding="UTF-8"?>
<svg id="Layer_1" data-name="Layer 1" xmlns="http://www.w3.org/2000/svg" viewBox="0 0 500 500">
  <g>
    <path d="M171.46,225.56v17.31c0,.77-.63,1.4-1.4,1.4h-6.62c-.77,0-1.4-.63-1.4-1.4v-17.31c0-.77-.63-1.4-1.4-1.4h-12.06c-.77,0-1.4,.63-1.4,1.4v50.28c0,.77,.63,1.4,1.4,1.4h12.06c.77,0,1.4-.63,1.4-1.4v-16.94c0-.77,.63-1.4,1.4-1.4h6.62c.77,0,1.4,.63,1.4,1.4v16.94c0,.77,.63,1.4,1.4,1.4h12.06c.77,0,1.4-.63,1.4-1.4v-50.28c0-.77-.63-1.4-1.4-1.4h-12.06c-.77,0-1.4,.63-1.4,1.4Z"/>
    <path d="M63.39,243.69c0-11.56-9.37-20.93-20.93-20.93h-.06c-11.56,0-20.94,9.37-20.94,20.94v32.15c0,.77,.62,1.4,1.4,1.4h13c.77,0,1.4-.63,1.4-1.4v-8.02c0-.77,.63-1.4,1.4-1.4h7.56c.77,0,1.4,.63,1.4,1.4v8.02c0,.77,.63,1.4,1.4,1.4h13c.77,0,1.4-.63,1.4-1.4v-32.15Zm-20.12,7.69c-4.32,.54-7.95-3.09-7.41-7.41,.37-2.94,2.75-5.32,5.69-5.69,4.32-.54,7.95,3.09,7.41,7.41-.37,2.94-2.75,5.32-5.69,5.69Z"/>
    <path d="M124.67,224.1h-22.96c-.77,.01-1.4,.64-1.4,1.41v50.33c0,.77,.63,1.4,1.4,1.4h12.58c.77,0,1.4-.63,1.4-1.4v-9.72c0-.77,.63-1.4,1.4-1.4h7.59c11.33,0,20.52-9.19,20.52-20.52v-.06c0-11.33-9.19-20.05-20.52-20.05Zm-1.99,26.92c-3.65,0-6.6-2.96-6.6-6.6s2.96-6.6,6.6-6.6,6.6,2.96,6.6,6.6-2.96,6.6-6.6,6.6Z"/>
    <path d="M79.97,261.63v-36.06c0-.77-.63-1.4-1.4-1.4h-11.6c-.77,0-1.4,.63-1.4,1.4v50.28c0,.77,.63,1.4,1.4,1.4h29.89c.77,0,1.4-.63,1.4-1.4v-11.42c0-.77-.63-1.4-1.4-1.4h-15.5c-.77,0-1.4-.63-1.4-1.4Z"/>
    <path d="M231.47,243.69c0-11.56-9.37-20.93-20.93-20.93h-.06c-11.56,0-20.94,9.37-20.94,20.94v32.15c0,.77,.62,1.4,1.4,1.4h13c.77,0,1.4-.63,1.4-1.4v-8.02c0-.77,.63-1.4,1.4-1.4h7.56c.77,0,1.4,.63,1.4,1.4v8.02c0,.77,.63,1.4,1.4,1.4h13c.77,0,1.4-.63,1.4-1.4v-32.15Zm-20.12,7.69c-4.32,.54-7.95-3.09-7.41-7.41,.37-2.94,2.75-5.32,5.69-5.69,4.32-.54,7.95,3.09,7.41,7.41-.37,2.94-2.75,5.32-5.69,5.69Z"/>
  </g>
  <g>
    <path d="M337.34,243.53c0-11.56-9.37-20.93-20.93-20.93h-.06c-11.56,0-20.94,9.37-20.94,20.94v32.15c0,.77,.62,1.4,1.4,1.4h13c.77,0,1.4-.63,1.4-1.4v-8.02c0-.77,.63-1.4,1.4-1.4h7.56c.77,0,1.4,.63,1.4,1.4v8.02c0,.77,.63,1.4,1.4,1.4h13c.77,0,1.4-.63,1.4-1.4v-32.15Zm-20.12,7.69c-4.32,.54-7.95-3.09-7.41-7.41,.37-2.94,2.75-5.32,5.69-5.69,4.32-.54,7.95,3.09,7.41,7.41-.37,2.94-2.75,5.32-5.69,5.69Z"/>
    <path d="M424.49,261.79v-36.06c0-.77-.63-1.4-1.4-1.4h-11.6c-.77,0-1.4,.63-1.4,1.4v50.28c0,.77,.63,1.4,1.4,1.4h29.89c.77,0,1.4-.63,1.4-1.4v-11.42c0-.77-.63-1.4-1.4-1.4h-15.5c-.77,0-1.4-.63-1.4-1.4Z"/>
    <path d="M372.6,236.07v-10.44c0-.77-.63-1.4-1.4-1.4h-29.89c-.77,0-1.4,.63-1.4,1.4v50.38c0,.77,.63,1.4,1.4,1.4h11.6c.77,0,1.4-.63,1.4-1.4v-17.55c0-.26,.21-.47,.47-.47h15.12c.77,0,1.4-.63,1.4-1.4v-10.05c0-.77-.63-1.4-1.4-1.4h-15.12c-.26,0-.47-.21-.47-.47v-6.75c0-.26,.21-.47,.47-.47h16.43c.77,0,1.4-.63,1.4-1.4Z"/>
    <path d="M407.36,236.07v-10.44c0-.77-.63-1.4-1.4-1.4h-29.89c-.77,0-1.4,.63-1.4,1.4v50.38c0,.77,.63,1.4,1.4,1.4h11.6c.77,0,1.4-.63,1.4-1.4v-17.55c0-.26,.21-.47,.47-.47h15.12c.77,0,1.4-.63,1.4-1.4v-10.05c0-.77-.63-1.4-1.4-1.4h-15.12c-.26,0-.47-.21-.47-.47v-6.75c0-.26,.21-.47,.47-.47h16.43c.77,0,1.4-.63,1.4-1.4Z"/>
    <path d="M478.54,236.07v-10.44c0-.77-.63-1.4-1.4-1.4h-29.89c-.77,0-1.4,.63-1.4,1.4v50.38c0,.77,.63,1.4,1.4,1.4h29.89c.77,0,1.4-.63,1.4-1.4v-10.44c0-.77-.63-1.4-1.4-1.4h-16.43c-.26,0-.47-.21-.47-.47v-6c0-.26,.21-.47,.47-.47h15.12c.77,0,1.4-.63,1.4-1.4v-10.05c0-.77-.63-1.4-1.4-1.4h-15.12c-.26,0-.47-.21-.47-.47v-6c0-.26,.21-.47,.47-.47h16.43c.77,0,1.4-.63,1.4-1.4Z"/>
    <path d="M293.33,244.3v-.06c0-11.33-9.19-20.05-20.52-20.05l-21.98,.02c-.77,0-1.4,.63-1.4,1.4v50.28c0,.77,.63,1.4,1.4,1.4h11.6c.77,0,1.4-.63,1.4-1.4v-10.06c0-.25,.34-.32,.44-.1l5.2,10.77c.23,.48,.72,.79,1.26,.79h19.49c.77,0,1.4-.63,1.4-1.4v-10c0-.77-.63-1.4-1.4-1.4h-11.67c-.29,0-.34-.4-.07-.48,8.57-2.46,14.84-10.35,14.84-19.72Zm-21.65,6.68c-4.32,.54-7.95-3.09-7.41-7.41,.37-2.94,2.75-5.32,5.69-5.69,4.32-.54,7.95,3.09,7.41,7.41-.37,2.94-2.75,5.32-5.69,5.69Z"/>
  </g>
</svg>