<?xml version="1.0"?>
<svg width="300" height="150" xmlns="http://www.w3.org/2000/svg" xmlns:svg="http://www.w3.org/2000/svg" data-name="Layer 1">
 <g class="layer">
  <title>Layer 1</title>
  <g id="svg_1">
   <path d="m206.61,7.5l0,21.63c0,0.96 -0.78,1.75 -1.75,1.75l-8.28,0c-0.96,0 -1.75,-0.78 -1.75,-1.75l0,-21.63c0,-0.96 -0.78,-1.75 -1.75,-1.75l-15.08,0c-0.96,0 -1.75,0.78 -1.75,1.75l0,62.85c0,0.96 0.78,1.75 1.75,1.75l15.08,0c0.96,0 1.75,-0.78 1.75,-1.75l0,-21.18c0,-0.96 0.78,-1.75 1.75,-1.75l8.28,0c0.96,0 1.75,0.78 1.75,1.75l0,21.18c0,0.96 0.78,1.75 1.75,1.75l15.08,0c0.96,0 1.75,-0.78 1.75,-1.75l0,-62.85c0,-0.96 -0.78,-1.75 -1.75,-1.75l-15.08,0c-0.96,0 -1.75,0.78 -1.75,1.75z" id="svg_2"/>
   <path d="m71.53,30.17c0,-14.45 -11.72,-26.17 -26.17,-26.17l-0.07,0c-14.45,0 -26.17,11.72 -26.17,26.17l0,40.19c0,0.96 0.78,1.75 1.75,1.75l16.25,0c0.96,0 1.75,-0.78 1.75,-1.75l0,-10.02c0,-0.96 0.78,-1.75 1.75,-1.75l9.45,0c0.96,0 1.75,0.78 1.75,1.75l0,10.02c0,0.96 0.78,1.75 1.75,1.75l16.25,0c0.96,0 1.75,-0.78 1.75,-1.75l-0.02,-40.19l-0.02,0zm-25.13,9.61c-5.4,0.68 -9.94,-3.86 -9.26,-9.26c0.46,-3.68 3.43,-6.65 7.11,-7.11c5.4,-0.68 9.94,3.86 9.26,9.26c-0.46,3.68 -3.43,6.65 -7.11,7.11z" id="svg_3"/>
   <path d="m148.12,5.68l-28.7,0.02c-0.96,0 -1.75,0.78 -1.75,1.75l0,62.91c0,0.96 0.78,1.75 1.75,1.75l15.72,0c0.96,0 1.75,-0.78 1.75,-1.75l0,-12.15c0,-0.96 0.78,-1.75 1.75,-1.75l9.48,0c14.16,0 25.65,-11.48 25.65,-25.65l0,-0.07c0,-14.16 -11.48,-25.06 -25.65,-25.06zm-2.49,33.65c-4.56,0 -8.25,-3.7 -8.25,-8.25s3.7,-8.25 8.25,-8.25s8.25,3.7 8.25,8.25s-3.7,8.25 -8.25,8.25z" id="svg_4"/>
   <path d="m92.25,52.58l0,-45.08c0,-0.96 -0.78,-1.75 -1.75,-1.75l-14.5,0c-0.96,0 -1.75,0.78 -1.75,1.75l0,62.85c0,0.96 0.78,1.75 1.75,1.75l37.37,0c0.96,0 1.75,-0.78 1.75,-1.75l0,-14.28c0,-0.96 -0.78,-1.75 -1.75,-1.75l-19.37,0c-0.96,0 -1.75,-0.78 -1.75,-1.75l0,0.01z" id="svg_5"/>
   <path d="m281.62,30.17c0,-14.45 -11.72,-26.17 -26.17,-26.17l-0.07,0c-14.45,0 -26.17,11.72 -26.17,26.17l0,40.19c0,0.96 0.78,1.75 1.75,1.75l16.25,0c0.96,0 1.75,-0.78 1.75,-1.75l0,-10.02c0,-0.96 0.78,-1.75 1.75,-1.75l9.45,0c0.96,0 1.75,0.78 1.75,1.75l0,10.02c0,0.96 0.78,1.75 1.75,1.75l16.25,0c0.96,0 1.75,-0.78 1.75,-1.75l-0.02,-40.19l-0.02,0zm-25.13,9.61c-5.4,0.68 -9.94,-3.86 -9.26,-9.26c0.46,-3.68 3.43,-6.65 7.11,-7.11c5.4,-0.68 9.94,3.86 9.26,9.26c-0.46,3.68 -3.43,6.65 -7.11,7.11z" id="svg_6"/>
  </g>
  <g id="svg_7">
   <path d="m117.2,102.17c0,-14.45 -11.72,-26.17 -26.17,-26.17l-0.07,0c-14.45,0 -26.17,11.72 -26.17,26.17l0,40.19c0,0.96 0.78,1.75 1.75,1.75l16.25,0c0.96,0 1.75,-0.78 1.75,-1.75l0,-10.02c0,-0.96 0.78,-1.75 1.75,-1.75l9.45,0c0.96,0 1.75,0.78 1.75,1.75l0,10.02c0,0.96 0.78,1.75 1.75,1.75l16.25,0c0.96,0 1.75,-0.78 1.75,-1.75l-0.02,-40.19l-0.02,0zm-25.13,9.61c-5.4,0.68 -9.94,-3.86 -9.26,-9.26c0.46,-3.68 3.43,-6.65 7.11,-7.11c5.4,-0.68 9.94,3.86 9.26,9.26c-0.46,3.68 -3.43,6.65 -7.11,7.11z" id="svg_8"/>
   <path d="m226.12,124.99l0,-45.08c0,-0.96 -0.78,-1.75 -1.75,-1.75l-14.5,0c-0.96,0 -1.75,0.78 -1.75,1.75l0,62.85c0,0.96 0.78,1.75 1.75,1.75l37.37,0c0.96,0 1.75,-0.78 1.75,-1.75l0,-14.28c0,-0.96 -0.78,-1.75 -1.75,-1.75l-19.37,0c-0.96,0 -1.75,-0.78 -1.75,-1.75l0,0.01z" id="svg_9"/>
   <path d="m161.26,92.84l0,-13.05c0,-0.96 -0.78,-1.75 -1.75,-1.75l-37.37,0c-0.96,0 -1.75,0.78 -1.75,1.75l0,62.97c0,0.96 0.78,1.75 1.75,1.75l14.5,0c0.96,0 1.75,-0.78 1.75,-1.75l0,-21.94c0,-0.32 0.26,-0.58 0.58,-0.58l18.89,0c0.96,0 1.75,-0.78 1.75,-1.75l0,-12.56c0,-0.96 -0.78,-1.75 -1.75,-1.75l-18.89,0c-0.32,0 -0.58,-0.26 -0.58,-0.58l0,-8.44c0,-0.32 0.26,-0.58 0.58,-0.58l20.54,0c0.96,0 1.75,-0.78 1.75,-1.75l0,0.01z" id="svg_10"/>
   <path d="m204.72,92.84l0,-13.05c0,-0.96 -0.78,-1.75 -1.75,-1.75l-37.37,0c-0.96,0 -1.75,0.78 -1.75,1.75l0,62.97c0,0.96 0.78,1.75 1.75,1.75l14.5,0c0.96,0 1.75,-0.78 1.75,-1.75l0,-21.94c0,-0.32 0.26,-0.58 0.58,-0.58l18.89,0c0.96,0 1.75,-0.78 1.75,-1.75l0,-12.56c0,-0.96 -0.78,-1.75 -1.75,-1.75l-18.89,0c-0.32,0 -0.58,-0.26 -0.58,-0.58l0,-8.44c0,-0.32 0.26,-0.58 0.58,-0.58l20.54,0c0.96,0 1.75,-0.78 1.75,-1.75l0,0.01z" id="svg_11"/>
   <path d="m293.69,92.84l0,-13.05c0,-0.96 -0.78,-1.75 -1.75,-1.75l-37.37,0c-0.96,0 -1.75,0.78 -1.75,1.75l0,62.97c0,0.96 0.78,1.75 1.75,1.75l37.37,0c0.96,0 1.75,-0.78 1.75,-1.75l0,-13.05c0,-0.96 -0.78,-1.75 -1.75,-1.75l-20.54,0c-0.32,0 -0.58,-0.26 -0.58,-0.58l0,-7.5c0,-0.32 0.26,-0.58 0.58,-0.58l18.89,0c0.96,0 1.75,-0.78 1.75,-1.75l0,-12.56c0,-0.96 -0.78,-1.75 -1.75,-1.75l-18.89,0c-0.32,0 -0.58,-0.26 -0.58,-0.58l0,-7.5c0,-0.32 0.26,-0.58 0.58,-0.58l20.54,0c0.96,0 1.75,-0.78 1.75,-1.75l0,0.01z" id="svg_12"/>
   <path d="m62.18,103.13l0,-0.07c0,-14.16 -11.48,-25.06 -25.65,-25.06l-27.48,0.03c-0.96,0 -1.75,0.78 -1.75,1.75l0,62.86c0,0.96 0.78,1.75 1.75,1.75l14.5,0c0.96,0 1.75,-0.78 1.75,-1.75l0,-12.58c0,-0.31 0.42,-0.41 0.55,-0.13l6.5,13.46c0.29,0.6 0.9,0.99 1.57,0.99l24.36,0c0.96,0 1.75,-0.78 1.75,-1.75l0,-12.5c0,-0.96 -0.78,-1.75 -1.75,-1.75l-14.58,0c-0.36,0 -0.42,-0.5 -0.08,-0.6c10.71,-3.08 18.55,-12.94 18.55,-24.64l0.01,-0.01zm-27.06,8.34c-5.4,0.68 -9.94,-3.86 -9.26,-9.26c0.46,-3.68 3.43,-6.65 7.11,-7.11c5.4,-0.68 9.94,3.86 9.26,9.26c-0.46,3.68 -3.44,6.65 -7.11,7.11z" id="svg_13"/>
  </g>
 </g>
</svg>