<svg width="12" height="16" viewBox="0 0 12 16" fill="none" xmlns="http://www.w3.org/2000/svg">
<path d="M0.75 0.5H11.25C11.4489 0.5 11.6397 0.576554 11.7803 0.712821C11.921 0.849088 12 1.03391 12 1.22662V15.1362C12.0001 15.2012 11.9822 15.265 11.9482 15.321C11.9142 15.377 11.8653 15.4231 11.8066 15.4546C11.7479 15.486 11.6816 15.5017 11.6146 15.4999C11.5476 15.4981 11.4823 15.4789 11.4255 15.4443L6 12.1477L0.5745 15.4436C0.517776 15.4781 0.452541 15.4973 0.385576 15.4991C0.318612 15.501 0.252365 15.4854 0.193721 15.454C0.135078 15.4226 0.0861801 15.3766 0.0521121 15.3207C0.0180441 15.2648 4.98531e-05 15.2011 0 15.1362V1.22662C0 1.03391 0.0790178 0.849088 0.21967 0.712821C0.360322 0.576554 0.551088 0.5 0.75 0.5Z" fill="#222222"/>
</svg>
