<svg width="20" height="20" viewBox="0 0 20 20" fill="none" xmlns="http://www.w3.org/2000/svg">
<g clip-path="url(#clip0_165_10149)">
<path d="M1.66634 7.50009H4.16634V17.5001H1.66634C1.44533 17.5001 1.23337 17.4123 1.07709 17.256C0.920805 17.0997 0.833008 16.8878 0.833008 16.6668V8.33343C0.833008 8.11241 0.920805 7.90045 1.07709 7.74417C1.23337 7.58789 1.44533 7.50009 1.66634 7.50009ZM6.07717 6.42259L11.4105 1.08926C11.4814 1.01817 11.5756 0.975065 11.6757 0.967869C11.7758 0.960673 11.8752 0.989871 11.9555 1.05009L12.6663 1.58343C12.8638 1.73163 13.0129 1.93497 13.0949 2.16781C13.1769 2.40064 13.1881 2.65255 13.1272 2.89176L12.1663 6.66676H17.4997C17.9417 6.66676 18.3656 6.84235 18.6782 7.15492C18.9907 7.46748 19.1663 7.8914 19.1663 8.33343V10.0868C19.1666 10.3046 19.1241 10.5203 19.0413 10.7218L16.4622 16.9843C16.3993 17.1369 16.2924 17.2675 16.1552 17.3593C16.0179 17.4512 15.8565 17.5002 15.6913 17.5001H6.66634C6.44533 17.5001 6.23337 17.4123 6.07709 17.256C5.92081 17.0997 5.83301 16.8878 5.83301 16.6668V7.01176C5.83306 6.79076 5.92088 6.57884 6.07717 6.42259Z" fill="#FF0000"/>
</g>
<defs>
<clipPath id="clip0_165_10149">
<rect width="20" height="20" fill="white"/>
</clipPath>
</defs>
</svg>
