<svg width="18" height="18" viewBox="0 0 18 18" fill="none" xmlns="http://www.w3.org/2000/svg">
<g id="Group">
<path id="Vector" d="M7.05 12L2.25 12C1.85218 12 1.47064 11.8419 1.18934 11.5606C0.908035 11.2793 0.75 10.8978 0.75 10.5V8.92195C0.749798 8.72593 0.788017 8.53177 0.862499 8.35045L3.18375 2.7142C3.24038 2.57679 3.33655 2.4593 3.46007 2.37664C3.58359 2.29398 3.72888 2.24989 3.8775 2.24995L16.5 2.24995C16.6989 2.24995 16.8897 2.32897 17.0303 2.46962C17.171 2.61027 17.25 2.80104 17.25 2.99995V10.5C17.25 10.6989 17.171 10.8896 17.0303 11.0303C16.8897 11.1709 16.6989 11.25 16.5 11.25H13.8885C13.7684 11.2499 13.6501 11.2787 13.5435 11.3339C13.4368 11.3891 13.345 11.4691 13.2758 11.5672L9.186 17.3625C9.1343 17.4357 9.05806 17.488 8.9711 17.5099C8.88414 17.5318 8.79222 17.5218 8.712 17.4817L7.3515 16.8015C6.96862 16.6101 6.66275 16.2935 6.4847 15.9042C6.30665 15.515 6.26715 15.0765 6.37275 14.6617L7.05 12ZM12.75 10.0589L12.75 3.74995L4.38 3.74995L2.25 8.92195L2.25 10.5L7.05 10.5C7.27845 10.5 7.50388 10.5522 7.70908 10.6526C7.91428 10.753 8.09383 10.899 8.23404 11.0793C8.37425 11.2597 8.47141 11.4697 8.51811 11.6933C8.56481 11.917 8.55981 12.1483 8.5035 12.3697L7.82625 15.0307C7.80505 15.1137 7.81292 15.2015 7.84853 15.2794C7.88415 15.3573 7.94536 15.4207 8.022 15.459L8.51775 15.7065L12.0503 10.7025C12.2378 10.437 12.4777 10.2194 12.75 10.0589ZM14.25 9.74995H15.75L15.75 3.74995H14.25L14.25 9.74995Z" fill="#3E3E3E"/>
</g>
</svg>
