<svg width="20" height="20" viewBox="0 0 20 20" fill="none" xmlns="http://www.w3.org/2000/svg">
<g clip-path="url(#clip0_165_10150)">
<path d="M18.333 12.5H15.833V2.5H18.333C18.554 2.5 18.766 2.5878 18.9223 2.74408C19.0785 2.90036 19.1663 3.11232 19.1663 3.33333V11.6667C19.1663 11.8877 19.0785 12.0996 18.9223 12.2559C18.766 12.4122 18.554 12.5 18.333 12.5ZM13.9222 13.5775L8.58884 18.9108C8.51796 18.9819 8.42379 19.025 8.32366 19.0322C8.22353 19.0394 8.12416 19.0102 8.04384 18.95L7.33301 18.4167C7.13559 18.2685 6.98647 18.0651 6.90446 17.8323C6.82245 17.5995 6.81122 17.3475 6.87218 17.1083L7.83301 13.3333H2.49968C2.05765 13.3333 1.63372 13.1577 1.32116 12.8452C1.0086 12.5326 0.833009 12.1087 0.833009 11.6667V9.91333C0.832784 9.69553 0.875251 9.4798 0.958009 9.27833L3.53801 3.01667C3.60074 2.86396 3.70742 2.73333 3.84451 2.64134C3.9816 2.54936 4.14292 2.50016 4.30801 2.5H13.333C13.554 2.5 13.766 2.5878 13.9223 2.74408C14.0785 2.90036 14.1663 3.11232 14.1663 3.33333V12.9883C14.1663 13.2093 14.0785 13.4213 13.9222 13.5775Z" fill="#777777"/>
</g>
<defs>
<clipPath id="clip0_165_10150">
<rect width="20" height="20" fill="white"/>
</clipPath>
</defs>
</svg>
