<svg width="24" height="24" viewBox="0 0 24 24" fill="none" xmlns="http://www.w3.org/2000/svg">
<g clip-path="url(#clip0_404_316)">
<path d="M16.709 20.824L22 22L20.824 16.709C21.5985 15.2604 22.0025 13.6426 22 12C22 6.477 17.523 2 12 2C6.47699 2 1.99999 6.477 1.99999 12C1.99999 17.523 6.47699 22 12 22C13.6426 22.0025 15.2604 21.5985 16.709 20.824V20.824ZM16.419 18.711L15.766 19.061C14.6074 19.6801 13.3136 20.0027 12 20C10.4177 20 8.87102 19.5308 7.55543 18.6518C6.23983 17.7727 5.21445 16.5233 4.60895 15.0615C4.00345 13.5997 3.84502 11.9911 4.15371 10.4393C4.46239 8.88743 5.22431 7.46197 6.34313 6.34315C7.46195 5.22433 8.88742 4.4624 10.4393 4.15372C11.9911 3.84504 13.5996 4.00346 15.0615 4.60896C16.5233 5.21447 17.7727 6.23984 18.6517 7.55544C19.5308 8.87103 20 10.4177 20 12C20 13.334 19.675 14.618 19.06 15.766L18.711 16.419L19.366 19.366L16.419 18.711V18.711Z" fill="#777777"/>
</g>
<defs>
<clipPath id="clip0_404_316">
<rect width="24" height="24" fill="white" transform="matrix(-1 0 0 1 24 0)"/>
</clipPath>
</defs>
</svg>
