<svg width="18" height="19" viewBox="0 0 18 19" fill="none" xmlns="http://www.w3.org/2000/svg">
<g id="Group">
<path id="Vector" d="M10.9505 6.57109H15.7505C16.1483 6.57109 16.5298 6.72913 16.8111 7.01044C17.0925 7.29174 17.2505 7.67327 17.2505 8.07109V9.64909C17.2507 9.84512 17.2125 10.0393 17.138 10.2206L14.8167 15.8568C14.7601 15.9943 14.6639 16.1117 14.5404 16.1944C14.4169 16.2771 14.2716 16.3212 14.123 16.3211H1.50049C1.30158 16.3211 1.11081 16.2421 0.970158 16.1014C0.829506 15.9608 0.750488 15.77 0.750488 15.5711V8.07109C0.750488 7.87218 0.829506 7.68142 0.970158 7.54076C1.11081 7.40011 1.30158 7.32109 1.50049 7.32109H4.11199C4.23206 7.32113 4.35039 7.29233 4.45701 7.23712C4.56364 7.18191 4.65546 7.10191 4.72474 7.00384L8.81449 1.20859C8.86619 1.13533 8.94243 1.08302 9.02939 1.06114C9.11635 1.03926 9.20827 1.04927 9.28849 1.08934L10.649 1.76959C11.0319 1.96097 11.3377 2.27758 11.5158 2.66683C11.6938 3.05608 11.7333 3.49454 11.6277 3.90934L10.9505 6.57109ZM5.25049 8.51209V14.8211H13.6205L15.7505 9.64909V8.07109H10.9505C10.722 8.07106 10.4966 8.01885 10.2914 7.91844C10.0862 7.81803 9.90665 7.67207 9.76644 7.49171C9.62623 7.31135 9.52907 7.10134 9.48238 6.87771C9.43568 6.65409 9.44067 6.42275 9.49699 6.20134L10.1742 3.54034C10.1954 3.45734 10.1876 3.36958 10.152 3.29167C10.1163 3.21375 10.0551 3.15038 9.97849 3.11209L9.48274 2.86459L5.95024 7.86859C5.76274 8.13409 5.52274 8.35159 5.25049 8.51209ZM3.75049 8.82109H2.25049V14.8211H3.75049V8.82109Z" fill="#3E3E3E"/>
</g>
</svg>
