<svg width="48" height="48" viewBox="0 0 48 48" fill="none" xmlns="http://www.w3.org/2000/svg">
<g filter="url(#filter0_d_718_1285)">
<circle cx="26" cy="22" r="20" fill="#F7F8FF"/>
</g>
<path d="M33.0285 19.6502C33.0285 19.8515 32.9543 20.0529 32.7953 20.2119C32.488 20.5192 31.9792 20.5192 31.6719 20.2119L25.8004 14.3404L19.9289 20.2119C19.6215 20.5192 19.1128 20.5192 18.8055 20.2119C18.4981 19.9045 18.4981 19.3958 18.8055 19.0884L25.2387 12.6552C25.546 12.3479 26.0547 12.3479 26.3621 12.6552L32.7953 19.0884C32.9543 19.2474 33.0285 19.4488 33.0285 19.6502Z" fill="#777777"/>
<path d="M26.5951 13.3964V31.2334C26.5951 31.668 26.2348 32.0283 25.8002 32.0283C25.3657 32.0283 25.0054 31.668 25.0054 31.2334V13.3964C25.0054 12.9618 25.3657 12.6015 25.8002 12.6015C26.2348 12.6015 26.5951 12.9618 26.5951 13.3964Z" fill="#777777"/>
<defs>
<filter id="filter0_d_718_1285" x="0" y="0" width="48" height="48" filterUnits="userSpaceOnUse" color-interpolation-filters="sRGB">
<feFlood flood-opacity="0" result="BackgroundImageFix"/>
<feColorMatrix in="SourceAlpha" type="matrix" values="0 0 0 0 0 0 0 0 0 0 0 0 0 0 0 0 0 0 127 0" result="hardAlpha"/>
<feOffset dx="-2" dy="2"/>
<feGaussianBlur stdDeviation="2"/>
<feComposite in2="hardAlpha" operator="out"/>
<feColorMatrix type="matrix" values="0 0 0 0 0 0 0 0 0 0 0 0 0 0 0 0 0 0 0.25 0"/>
<feBlend mode="normal" in2="BackgroundImageFix" result="effect1_dropShadow_718_1285"/>
<feBlend mode="normal" in="SourceGraphic" in2="effect1_dropShadow_718_1285" result="shape"/>
</filter>
</defs>
</svg>
