<svg width="24" height="24" viewBox="0 0 24 24" fill="none" xmlns="http://www.w3.org/2000/svg">
<path d="M12.001 1.98515C14.8197 -0.75307 19.1757 -0.662185 21.8912 2.28118C24.6055 5.22584 24.6991 9.91548 22.1744 12.9744L11.9986 24L1.82517 12.9744C-0.69958 9.91548 -0.604781 5.21805 2.10837 2.28118C4.82632 -0.65829 9.17384 -0.756965 12.001 1.98515ZM20.192 4.11575C18.3921 2.16562 15.4881 2.08642 13.6042 3.9171L12.0022 5.47252L10.399 3.9184C8.50905 2.08513 5.6111 2.16562 3.80634 4.11834C2.01837 6.05289 1.92837 9.14946 3.57594 11.1957L11.9998 20.3244L20.4236 11.197C22.0724 9.14945 21.9824 6.05678 20.192 4.11575Z" fill="#212529"/>
</svg>
