<svg width="399" height="136" viewBox="0 0 399 136" fill="none" xmlns="http://www.w3.org/2000/svg">
<path d="M35.1388 1.21381C11.8993 6.14391 -3.80958 28.8547 0.805918 50.9189C2.99221 61.1832 10.5228 71.8516 19.5918 77.2666C24.5312 80.257 38.3777 85.3487 47.3658 87.5309C52.5481 88.7432 53.3579 88.7432 56.111 87.6117C62.9128 84.783 62.5079 76.2967 55.3822 72.094C53.6008 71.0434 48.4994 69.0228 44.1269 67.6489C35.2197 64.7393 28.0131 60.375 25.098 56.0106C19.025 46.9586 20.8064 33.7039 29.1467 26.1068L31.8189 23.6821L29.2277 27.0766C22.4259 35.8861 21.6162 44.0491 26.8795 51.8887C30.6042 57.4654 35.3817 60.5366 45.5034 63.7694C56.3539 67.1639 60.4836 69.3461 64.1274 73.3064L67.1234 76.62V84.5405C67.1234 94.5623 65.6659 99.4924 61.3743 104.423C56.1919 110.322 52.7101 111.777 44.0459 111.777C34.572 111.777 30.3613 109.838 24.7741 102.887C20.3206 97.3103 17.0007 95.2089 12.6281 95.2089C3.55902 95.2089 -1.21843 104.423 3.23513 113.232C11.3325 128.992 33.3574 138.529 52.5481 134.488C71.0101 130.609 83.5611 118.081 87.1239 100.139C88.9053 91.087 87.7717 82.7624 83.642 74.357C78.4597 63.7694 70.2814 57.4654 55.7871 52.7778C46.0702 49.6257 42.5074 47.4436 40.483 43.2409C39.5114 41.3011 38.7826 38.8765 38.7826 37.745C38.7826 34.5122 42.1835 28.693 45.2605 26.6725C51.4145 22.5506 60.2406 26.1068 64.9371 34.593C68.0141 40.3313 69.3907 41.8669 72.5486 43.16C80.1602 46.3929 88.1766 41.1395 88.1766 32.8957C88.1766 23.1164 77.8929 10.3466 65.18 4.36583C55.7871 -0.0793457 45.9083 -1.13 35.1388 1.21381Z" fill="white"/>
<path d="M235.792 9.13426C231.014 11.1548 231.095 9.61919 231.338 61.9914C231.5 93.5116 231.824 110.484 232.391 111.535C233.605 113.879 238.302 115.576 241.703 114.929C246.561 114.04 247.695 111.616 247.695 102.16V93.9966L252.229 102.483C258.95 115.253 257.898 114.606 271.987 114.606C282.756 114.606 283.971 114.444 285.591 112.99C287.048 111.616 287.372 110.403 287.372 106.686C287.372 99.9773 286.4 99.0075 279.356 98.6034L273.606 98.2801V91.087V83.8939H279.113C282.109 83.8939 284.943 83.5706 285.429 83.2473C287.129 82.1158 288.182 79.1255 288.182 75.4077C288.182 72.5789 287.696 71.2858 286.157 69.7502C284.457 67.9721 283.485 67.7297 278.87 67.7297H273.606V60.8599V53.99H279.113C285.995 53.99 287.291 52.8585 287.939 46.4737C288.344 42.271 288.263 41.786 285.914 39.523L283.485 37.0176H270.934H258.383L256.035 39.7655C254.659 41.2203 252.472 44.4531 251.015 46.9586C249.557 49.4641 248.181 51.6462 247.857 51.8887C247.533 52.0503 247.371 43.6449 247.533 33.219C247.695 17.2164 247.533 13.9027 246.48 12.2863C244.213 8.81097 239.678 7.51784 235.792 9.13426ZM261.298 62.6379L257.25 70.4776L260.084 76.2159C261.703 79.2871 265.023 85.5912 267.533 90.1171L272.068 98.4417H269.801C267.371 98.4417 267.452 98.6034 258.14 80.4994L254.092 72.6598L255.792 69.3461C257.574 65.79 264.618 54.7983 265.023 54.7983C265.185 54.7983 263.485 58.3544 261.298 62.6379Z" fill="white"/>
<path d="M363.649 37.4218C357.819 39.0383 355.552 40.4122 351.584 44.4533C342.839 53.4244 341.948 66.1942 349.479 75.0037C354.418 80.742 360.005 83.1667 371.099 84.2981C376.929 84.9447 379.682 87.2077 379.682 91.4912C379.682 96.8254 372.799 100.058 366.564 97.7145C365.512 97.3104 362.921 95.4515 360.815 93.5926C354.094 87.6926 345.997 88.42 343.973 95.1282C343.244 97.7145 343.244 98.6843 344.459 101.19C346.483 105.473 353.851 111.777 359.277 113.879C365.593 116.384 375.714 116.384 382.192 113.879C397.82 107.898 403.65 89.8748 394.014 77.2667C389.804 71.8517 385.431 69.5887 376.038 68.2147C366.564 66.7599 363.973 65.3052 363.649 61.1025C363.001 53.9094 371.423 50.9998 377.739 56.0915C382.516 59.8901 384.055 60.4559 388.994 60.4559C392.881 60.4559 393.852 60.1326 395.472 58.3545C399.197 54.3135 397.739 49.2217 391.342 43.5642C384.46 37.5027 372.637 34.9164 363.649 37.4218Z" fill="white"/>
<path d="M96.031 37.9875C93.1969 40.0888 92.954 43.8874 93.4399 77.4282C93.8447 107.494 94.0067 110.322 95.3832 112.181C98.4602 116.465 106.072 116.061 109.068 111.454C110.282 109.676 110.444 107.09 110.282 91.572L110.12 73.7913L114.412 90.0364C119.675 109.676 120.323 111.858 121.943 113.394C123.643 115.172 138.947 115.091 141.457 113.313L143.239 112.101V76.2159V40.3313L141.133 38.7149C139.514 37.5025 137.813 37.0176 134.655 37.0176C129.878 37.0176 127.53 38.5532 126.558 42.1902C126.315 43.3217 126.234 52.6161 126.396 62.7996C126.477 73.0639 126.558 81.4693 126.477 81.4693C126.396 81.4693 125.91 79.3679 125.424 76.7817C123.967 69.6694 119.109 49.2216 117.651 44.2915C115.627 37.2601 115.141 37.0176 105.586 37.0176C100.323 37.0176 96.9217 37.3409 96.031 37.9875Z" fill="white"/>
<path d="M150.688 38.3916C149.069 39.8463 148.988 40.6546 148.745 75.5693C148.502 109.595 148.583 111.292 150.041 112.909C151.579 114.525 152.308 114.606 173.766 114.606C200.568 114.606 198.868 115.333 200.568 103.291L201.135 98.8459L206.074 98.6034L210.933 98.3609L211.904 104.503C213.119 112.424 213.848 113.555 217.816 114.606C223.727 116.222 229.071 113.07 229.071 108.059C229.071 106.928 227.451 96.7445 225.427 85.4295C223.403 74.1146 220.812 59.2434 219.597 52.3736C218.058 43.7258 216.925 39.4422 215.953 38.4724C214.739 37.2601 213.038 37.0176 205.993 37.0176C195.305 37.0176 194.981 37.2601 193.2 48.1709C190.77 63.2037 185.264 94.8048 184.859 96.1788C184.454 97.4719 183.24 97.6335 175.142 97.6335H165.911V91.2487V84.9446L171.418 84.4597C177.491 83.8939 179.272 82.52 180.163 77.7515C180.811 74.2762 180.082 71.3666 178.057 69.3461C176.762 68.053 175.304 67.7297 171.175 67.7297H165.911V60.8599V53.9901H173.118C182.025 53.9901 184.292 53.1819 185.75 49.5449C187.612 45.0997 187.288 42.0285 184.616 39.3614L182.268 37.0176H167.288C154.251 37.0176 152.146 37.1792 150.688 38.3916ZM208.504 78.3981L209.07 82.2775H206.074C203.564 82.2775 203.159 82.035 203.483 80.8227C203.726 80.0953 204.374 76.3776 204.941 72.579L205.912 65.7091L206.965 70.1543C207.532 72.579 208.18 76.2967 208.504 78.3981Z" fill="white"/>
<path d="M293.85 38.4725L291.826 40.0889L291.583 70.316C291.259 105.392 291.583 109.999 294.255 112.666C295.874 114.283 297.008 114.606 301.137 114.606C308.992 114.606 309.235 114.121 309.316 98.1994V85.1063L315.875 98.0377C319.438 105.15 323.081 111.777 324.053 112.747C325.511 114.364 326.563 114.606 331.503 114.606C337.819 114.606 340.005 113.394 340.005 109.838C340.005 108.868 337.252 102.806 333.932 96.5021L327.859 84.9447L330.45 83.8132C334.499 82.1159 338.466 78.2365 340.491 73.7914C343.244 67.9722 343.244 57.7079 340.491 51.8888C337.819 46.0697 334.094 42.2711 328.831 39.6848C324.458 37.5834 323.486 37.5026 310.045 37.1793C296.765 36.856 295.712 36.9369 293.85 38.4725ZM319.68 55.1216C324.863 57.7887 325.106 66.1133 320.004 68.4571C318.952 68.9421 316.118 69.3462 313.688 69.3462H309.235V62.2339C309.235 58.2737 309.478 54.7984 309.802 54.5559C310.773 53.586 317.332 53.9901 319.68 55.1216Z" fill="white"/>
</svg>
