<svg width="20" height="20" viewBox="0 0 20 20" fill="#333333" xmlns="http://www.w3.org/2000/svg">
<path d="M3.33341 12.5001H5.00008V16.6667H15.0001V3.33341H5.00008V7.50008H3.33341V2.50008C3.33341 2.27907 3.42121 2.06711 3.57749 1.91083C3.73377 1.75455 3.94573 1.66675 4.16675 1.66675H15.8334C16.0544 1.66675 16.2664 1.75455 16.4227 1.91083C16.5789 2.06711 16.6667 2.27907 16.6667 2.50008V17.5001C16.6667 17.7211 16.5789 17.9331 16.4227 18.0893C16.2664 18.2456 16.0544 18.3334 15.8334 18.3334H4.16675C3.94573 18.3334 3.73377 18.2456 3.57749 18.0893C3.42121 17.9331 3.33341 17.7211 3.33341 17.5001V12.5001ZM8.33341 9.16675V6.66675L12.5001 10.0001L8.33341 13.3334V10.8334H1.66675V9.16675H8.33341Z" fill="white"/>
</svg>
