<svg width="403" height="140" viewBox="0 0 403 140" fill="none" xmlns="http://www.w3.org/2000/svg">
<path d="M1.82785 53.1272H1.82786C4.07091 63.658 11.7658 74.563 21.0764 80.1235C23.6354 81.6722 28.4093 83.7195 33.6144 85.64C38.8406 87.5682 44.5875 89.3998 49.1299 90.5027L49.138 90.5046L49.138 90.5046C51.7032 91.1047 53.3144 91.439 54.6409 91.4502C56.0393 91.462 57.0803 91.1165 58.4911 90.5366L58.495 90.5351C62.2766 88.9623 64.1303 85.7508 63.9683 82.3209C63.8082 78.9315 61.6954 75.477 57.8902 73.2327C56.0041 72.1203 50.8123 70.0733 46.4321 68.6966C42.0415 67.262 38.0877 65.4744 34.8862 63.5216C31.6695 61.5595 29.2743 59.4684 27.9296 57.4552L27.9285 57.4535C25.461 53.7757 24.3526 49.3543 24.5133 44.9279C24.7875 48.186 25.9753 51.3564 28.0479 54.4442C31.9521 60.2895 36.9767 63.457 47.1992 66.722L47.2048 66.7239C58.0222 70.108 61.934 72.2269 65.3887 75.9804C65.3896 75.9814 65.3905 75.9824 65.3915 75.9835L68.1234 79.0051V86.5405C68.1234 91.5136 67.7602 95.1429 66.8979 98.112C66.0429 101.056 64.6841 103.394 62.6212 105.765C60.073 108.665 58.0258 110.376 55.6259 111.391C53.2125 112.413 50.3387 112.777 46.0459 112.777C41.3651 112.777 38.1135 112.295 35.3713 111.031C32.6366 109.769 30.3031 107.681 27.5546 104.262C23.0308 98.5974 19.4543 96.2089 14.6281 96.2089C9.72215 96.2089 5.91768 98.7185 3.97351 102.455C2.03787 106.176 1.98674 111.023 4.34269 115.683L4.34564 115.689L4.34566 115.689C8.52241 123.818 16.2543 130.284 25.3353 134.204C34.4204 138.125 44.9343 139.534 54.7538 137.467L1.82785 53.1272ZM1.82785 53.1272L1.8271 53.1236M1.82785 53.1272L1.8271 53.1236M1.8271 53.1236C-2.91126 30.4721 13.2013 7.27165 36.9278 2.23631C47.8993 -0.151123 58.0035 0.91713 67.6064 5.46129M1.8271 53.1236L90.1048 102.334M90.1048 102.334L90.1051 102.332C91.9296 93.0612 90.7638 84.5146 86.5402 75.9174C81.2056 65.0186 72.7655 58.571 58.0948 53.8263C48.3738 50.6728 45.2075 48.5927 43.384 44.8069L43.3806 44.7999L43.3771 44.793C42.9186 43.8776 42.5135 42.8388 42.2245 41.8966C41.9275 40.9282 41.7826 40.1562 41.7826 39.745C41.7826 38.3972 42.5243 36.3222 43.7309 34.259C44.9284 32.2113 46.4534 30.3988 47.8094 29.5084L47.817 29.5034C50.5715 27.6584 53.9587 27.4983 57.2719 28.8323C60.5928 30.1695 63.807 33.0051 66.059 37.0714C67.5963 39.9381 68.7565 41.8494 69.9654 43.2081C71.2117 44.609 72.4827 45.3941 74.1641 46.0832C82.4248 49.5869 91.1766 43.8628 91.1766 34.8957C91.1766 29.6863 88.4571 23.8316 84.2243 18.5788C79.9748 13.3054 74.1074 8.51982 67.6064 5.46129M90.1048 102.334C86.4614 120.682 73.5952 133.507 54.7542 137.467L90.1048 102.334ZM67.6064 5.46129C67.6069 5.4615 67.6073 5.46173 67.6078 5.46194L67.18 6.36583L67.6057 5.46097C67.6059 5.46107 67.6062 5.46118 67.6064 5.46129Z" fill="white" stroke="black" stroke-width="2"/>
<path d="M237.402 10.2132L237.408 10.2109C241.715 8.41973 246.773 9.83923 249.318 13.7399L249.318 13.7406C250.008 14.7997 250.309 16.2876 250.461 19.3078C250.614 22.3746 250.614 27.2359 250.533 35.2291L250.533 35.2345C250.452 40.4397 250.452 45.1359 250.512 48.5062C250.53 49.4856 250.553 50.3492 250.58 51.0785C251.053 50.3146 251.595 49.4103 252.15 48.4558C253.611 45.9445 255.832 42.6465 257.291 41.097L259.623 38.3679L259.923 38.0176H260.383H272.934H285.485H285.909L286.203 38.3215L288.621 40.8149C289.774 41.9265 290.577 42.7812 290.921 43.9985C291.247 45.1483 291.13 46.5335 290.934 48.5696L290.934 48.5746C290.614 51.7223 290.122 54.012 288.513 55.3865C287.703 56.079 286.69 56.4713 285.488 56.6964C284.295 56.9198 282.848 56.99 281.113 56.99H276.606V62.8599V68.7297H280.87C283.152 68.7297 284.687 68.7842 285.871 69.1087C287.144 69.4575 287.961 70.0995 288.872 71.0506C289.704 71.8829 290.309 72.7087 290.687 73.7543C291.058 74.7828 291.182 75.9476 291.182 77.4077C291.182 79.3545 290.907 81.1474 290.386 82.6289C289.871 84.094 289.082 85.3486 287.983 86.0799C287.797 86.2031 287.586 86.2772 287.434 86.3241C287.261 86.3771 287.063 86.4238 286.853 86.4655C286.432 86.5493 285.907 86.6238 285.317 86.6863C284.136 86.8115 282.643 86.8939 281.113 86.8939H276.606V93.087V99.3347L281.412 99.605L281.413 99.605C283.181 99.7064 284.636 99.846 285.807 100.12C286.987 100.395 287.971 100.826 288.715 101.576C289.465 102.331 289.869 103.304 290.092 104.46C290.312 105.601 290.372 107.001 290.372 108.686C290.372 110.545 290.295 111.901 289.991 112.986C289.668 114.137 289.107 114.934 288.276 115.717L288.268 115.725L288.259 115.733C287.809 116.138 287.338 116.496 286.692 116.774C286.06 117.046 285.316 117.219 284.339 117.336C282.414 117.567 279.347 117.606 273.987 117.606C273.317 117.606 272.678 117.608 272.07 117.609C269.508 117.615 267.474 117.62 265.831 117.505C263.783 117.362 262.194 117.027 260.822 116.185C259.453 115.346 258.414 114.07 257.319 112.288C256.438 110.855 255.473 109.012 254.256 106.687C253.968 106.136 253.665 105.557 253.346 104.951C253.345 104.95 253.345 104.949 253.344 104.949L250.695 99.9899V104.16C250.695 108.86 250.425 112.051 249.426 114.182C248.906 115.291 248.186 116.124 247.224 116.733C246.283 117.329 245.162 117.679 243.886 117.912C241.97 118.276 239.762 117.975 237.885 117.293C236.046 116.625 234.285 115.499 233.505 113.999C233.387 113.776 233.334 113.502 233.303 113.326C233.263 113.101 233.227 112.822 233.195 112.498C233.129 111.847 233.068 110.955 233.011 109.833C232.898 107.587 232.799 104.37 232.713 100.21C232.541 91.8873 232.419 79.7577 232.338 63.9965L232.338 63.996C232.334 63.0093 232.329 62.0417 232.325 61.0927C232.212 36.8913 232.155 24.8253 232.686 18.5961C232.959 15.3925 233.397 13.512 234.223 12.3134C234.988 11.2024 236.044 10.7704 237.026 10.3687C237.153 10.3168 237.279 10.2655 237.402 10.2132ZM258.353 72.9204L258.233 72.6773L257.216 74.6583L261.029 82.0406L261.03 82.042C265.703 91.1281 267.978 95.5469 269.39 97.7139C270.102 98.8071 270.499 99.1704 270.751 99.311C270.964 99.43 271.139 99.4417 271.801 99.4417H272.384L268.659 92.6022C268.658 92.6009 268.658 92.5997 268.657 92.5984C266.22 88.2049 263.026 82.1467 261.358 78.9827L261.199 78.6823L261.193 78.6706L261.187 78.6587L258.353 72.9204Z" fill="white" stroke="black" stroke-width="2"/>
<path d="M352.868 45.7552L352.871 45.7527C354.879 43.7075 356.509 42.2818 358.412 41.1657C360.314 40.0507 362.434 39.2755 365.382 38.4582C374.685 35.8657 386.858 38.5213 394.003 44.8138L394.005 44.8152C397.264 47.6974 399.391 50.5406 400.165 53.295C400.963 56.1319 400.292 58.7692 398.209 61.03C397.349 61.9745 396.561 62.6428 395.393 63.0229C394.292 63.3813 392.927 63.4559 390.994 63.4559C388.499 63.4559 386.725 63.3168 384.946 62.6313C383.19 61.9546 381.506 60.7745 379.116 58.8743L379.111 58.8701C376.191 56.5163 372.865 56.0712 370.414 56.9335C368.011 57.7791 366.364 59.8939 366.645 63.0128L366.645 63.0128L366.646 63.0256C366.72 63.9818 366.917 64.7003 367.254 65.2792C367.586 65.8499 368.095 66.3555 368.909 66.821C370.598 67.787 373.435 68.496 378.186 69.2257C382.927 69.9194 386.489 70.8486 389.421 72.3331C392.375 73.8285 394.63 75.8567 396.804 78.6529L396.804 78.6528L396.809 78.6595C406.898 91.861 400.726 110.621 384.551 116.812C381.167 118.121 376.888 118.758 372.674 118.758C368.461 118.758 364.22 118.121 360.912 116.81C358.058 115.704 354.764 113.528 351.942 111.112C349.135 108.71 346.66 105.954 345.557 103.622C344.934 102.338 344.563 101.33 344.489 100.258C344.416 99.1937 344.643 98.1607 345.01 96.857L345.013 96.8481L345.015 96.8393C346.15 93.0807 349.034 90.9548 352.542 90.6364C355.997 90.323 359.962 91.7574 363.475 94.8411L363.477 94.843C364.504 95.7496 365.652 96.6581 366.667 97.3864C367.713 98.136 368.527 98.6281 368.92 98.7798C371.788 99.8568 374.784 99.6416 377.034 98.5781C379.284 97.5143 380.682 95.6724 380.682 93.4912C380.682 91.5891 380.085 90.2571 378.936 89.2988C377.738 88.2996 375.822 87.6068 372.993 87.2925C367.403 86.7222 363.12 85.8192 359.586 84.2969C356.028 82.7647 353.277 80.6255 350.721 77.6561L350.719 77.6535C342.81 68.402 343.809 55.0488 352.868 45.7552Z" fill="white" stroke="black" stroke-width="2"/>
<path d="M97.4354 39.1841L97.4436 39.1782C97.8374 38.8923 98.3836 38.7157 98.9351 38.5887C99.5183 38.4543 100.237 38.3481 101.069 38.265C102.736 38.0987 104.939 38.0176 107.586 38.0176C109.964 38.0176 111.834 38.032 113.31 38.1697C114.784 38.3072 115.981 38.5756 116.956 39.1599C117.962 39.762 118.625 40.6333 119.159 41.7602C119.679 42.857 120.109 44.269 120.611 46.0117C121.847 50.1925 125.477 65.3124 127.472 74.2623C127.459 72.6271 127.445 70.8334 127.429 68.9317C127.419 67.6052 127.407 66.2261 127.396 64.8115C127.315 59.7146 127.295 54.8386 127.325 51.0923C127.341 49.2193 127.368 47.624 127.408 46.4227C127.428 45.8227 127.451 45.3149 127.477 44.9173C127.502 44.5428 127.532 44.2035 127.58 43.9803L127.586 43.956L127.592 43.932C128.123 41.9438 129.069 40.4067 130.639 39.3986C132.176 38.4117 134.18 38.0176 136.655 38.0176C139.937 38.0176 141.878 38.5262 143.733 39.9143L143.733 39.9142L143.742 39.9217L145.848 41.5381L146.239 41.8383V42.3313V78.2159V114.101V114.63L145.801 114.927L144.027 116.135C143.558 116.464 142.899 116.694 142.215 116.869C141.499 117.051 140.645 117.2 139.714 117.318C137.85 117.554 135.606 117.677 133.401 117.687C131.197 117.697 129 117.595 127.232 117.373C126.35 117.263 125.549 117.12 124.896 116.936C124.308 116.771 123.656 116.527 123.24 116.105C122.243 115.155 121.616 114.008 120.591 110.809C119.56 107.588 118.074 102.102 115.446 92.2952L115.445 92.2918L113.193 83.7669L113.282 93.5615C113.282 93.5618 113.282 93.5622 113.282 93.5625C113.363 101.309 113.364 105.875 113.189 108.726C113.015 111.571 112.661 112.89 111.9 114.009C110.194 116.624 107.222 117.995 104.309 118.15C101.398 118.305 98.3601 117.25 96.5752 114.771C95.688 113.569 95.3096 112.096 95.0487 107.438C94.7841 102.714 94.6423 94.464 94.44 79.4422C94.1973 62.6908 94.1351 53.3073 94.4926 47.8526C94.671 45.1308 94.9579 43.2979 95.4189 41.988C95.9018 40.6158 96.5737 39.8231 97.4354 39.1841Z" fill="white" stroke="black" stroke-width="2"/>
<path d="M152.034 39.6349L152.02 39.6476C151.804 39.8414 151.553 40.0775 151.326 40.4084C151.095 40.7437 150.918 41.1334 150.775 41.6263C150.501 42.5742 150.328 44.0068 150.202 46.3797C149.947 51.1576 149.866 60.1198 149.745 77.5622L152.034 39.6349ZM152.034 39.6349L152.049 39.6227M152.034 39.6349L152.049 39.6227M152.049 39.6227C153.019 38.8158 154.165 38.4502 156.564 38.2533C158.952 38.0573 162.784 38.0176 169.288 38.0176H184.268H184.682L184.975 38.3098L187.323 40.6536C188.792 42.1196 189.666 43.7568 189.878 45.6771C190.085 47.5653 189.639 49.6217 188.675 51.9244C188.284 52.8981 187.812 53.7527 187.14 54.4618C186.458 55.181 185.617 55.7018 184.56 56.0744C182.512 56.7965 179.55 56.9901 175.118 56.9901H168.911V62.8599V68.7297H173.175C177.287 68.7297 179.147 69.0249 180.764 70.6383C183.078 72.9481 183.838 76.2217 183.146 79.9348L183.146 79.9351C182.686 82.3969 181.955 84.2366 180.343 85.4748C178.781 86.6734 176.56 87.1713 173.51 87.4554L173.505 87.4558L168.911 87.8604V93.2487V98.6335H177.142C181.221 98.6335 183.463 98.5906 184.739 98.4018C185.377 98.3076 185.644 98.1925 185.757 98.118C185.812 98.081 185.851 98.0488 185.901 97.8913C185.903 97.8855 185.906 97.8741 185.91 97.8556C185.917 97.8281 185.925 97.7918 185.936 97.7457C185.956 97.6534 185.982 97.5313 186.013 97.3791C186.075 97.0749 186.155 96.6627 186.252 96.152C186.445 95.1313 186.702 93.7288 187.007 92.0345C187.618 88.6466 188.42 84.1 189.285 79.1255C191.016 69.1758 192.999 57.5219 194.212 50.0114L194.213 50.0098C194.655 47.2981 195.018 45.1741 195.486 43.5488C195.955 41.9186 196.566 40.6462 197.6 39.7478C198.638 38.846 199.968 38.4371 201.613 38.2335C203.248 38.0312 205.339 38.0176 207.993 38.0176C211.503 38.0176 213.762 38.0764 215.304 38.3008C216.898 38.5329 217.853 38.9598 218.66 39.7646C219.056 40.1606 219.37 40.7748 219.646 41.4688C219.934 42.1947 220.226 43.1344 220.53 44.2897C221.137 46.6024 221.811 49.8669 222.582 54.1985L222.582 54.1995C222.977 56.4382 223.519 59.5241 224.139 63.0588C225.424 70.3788 227.046 79.6234 228.411 87.2534C229.425 92.916 230.336 98.2966 230.995 102.405C231.325 104.459 231.592 106.198 231.776 107.497C231.955 108.751 232.071 109.688 232.071 110.059C232.071 112.959 230.511 115.31 228.164 116.681C225.832 118.044 222.738 118.441 219.556 117.572C217.508 117.029 216.004 116.394 214.967 114.64C214.02 113.037 213.516 110.565 212.916 106.657C212.916 106.656 212.916 106.656 212.916 106.655L212.085 101.404L208.124 101.602L208.123 101.602L204.021 101.804L203.56 105.418L203.56 105.418L203.558 105.431C203.467 106.076 203.385 106.692 203.307 107.281C203.03 109.362 202.801 111.088 202.388 112.433C202.114 113.327 201.741 114.125 201.176 114.803C200.604 115.489 199.878 116.002 198.969 116.386C197.209 117.128 194.681 117.411 191.055 117.531C188.231 117.624 184.638 117.618 180.073 117.611C178.724 117.608 177.29 117.606 175.766 117.606C165.059 117.606 159.464 117.587 156.361 117.361C154.815 117.248 153.787 117.08 153.025 116.791C152.2 116.479 151.743 116.047 151.316 115.598L151.307 115.588M152.049 39.6227L151.307 115.588M151.307 115.588L151.298 115.578M151.307 115.588L151.298 115.578M151.298 115.578C150.826 115.055 150.463 114.493 150.214 113.399M151.298 115.578L150.214 113.399M150.214 113.399C149.982 112.381 149.842 110.87 149.756 108.428M150.214 113.399L149.756 108.428M149.756 108.428C149.583 103.521 149.624 94.5626 149.745 77.5624L149.756 108.428ZM209.515 80.5463C209.224 78.6587 208.672 75.4751 208.157 73.1179L207.931 74.719L207.93 74.7265C207.645 76.6327 207.34 78.5206 207.075 80.0259C206.825 81.4507 206.594 82.6284 206.443 83.1046C206.435 83.1363 206.428 83.1651 206.422 83.1911C206.49 83.2036 206.572 83.2156 206.672 83.2265C207.003 83.2621 207.455 83.2775 208.074 83.2775H209.914L209.515 80.5504C209.515 80.549 209.515 80.5477 209.515 80.5463Z" fill="white" stroke="black" stroke-width="2"/>
<path d="M292.829 41.6046L292.826 42.0809L292.583 72.3068C292.421 89.8304 292.42 99.7938 292.797 105.708C293.173 111.591 293.927 113.756 295.548 115.374C296.432 116.256 297.263 116.86 298.483 117.205C299.634 117.53 301.078 117.606 303.137 117.606C305.068 117.606 306.693 117.582 307.97 117.249C309.343 116.891 310.366 116.164 311.037 114.82C311.658 113.573 311.948 111.845 312.106 109.548C312.265 107.226 312.296 104.176 312.316 100.204L312.316 100.199L312.316 91.2886L316.981 100.486C316.981 100.486 316.981 100.487 316.982 100.488C318.768 104.053 320.575 107.499 322.061 110.181C322.803 111.521 323.469 112.677 324.014 113.563C324.523 114.392 324.985 115.085 325.326 115.434C326.142 116.335 326.932 116.932 328.232 117.254C329.434 117.551 331.057 117.606 333.503 117.606C336.665 117.606 339.027 117.314 340.611 116.428C341.438 115.965 342.059 115.338 342.461 114.526C342.854 113.731 343.005 112.823 343.005 111.838C343.005 111.553 342.918 111.224 342.837 110.956C342.746 110.651 342.615 110.285 342.456 109.871C342.136 109.042 341.679 107.977 341.124 106.756C340.011 104.311 338.484 101.202 336.817 98.0362L331.244 87.431L332.844 86.7325C337.135 84.9311 341.276 80.8665 343.398 76.2125C344.856 73.1258 345.556 68.9479 345.556 64.8401C345.556 60.7317 344.856 56.5532 343.397 53.4663C340.633 47.4495 336.748 43.4783 331.272 40.7873L331.264 40.7834C329.03 39.7098 327.585 39.1163 324.968 38.7737C322.432 38.4418 318.762 38.3406 312.069 38.1796M292.829 41.6046L312.045 39.1793M292.829 41.6046L293.202 41.3074L295.22 39.696M292.829 41.6046L295.85 40.4725M312.069 38.1796L312.045 39.1793M312.069 38.1796C312.069 38.1796 312.069 38.1796 312.069 38.1796L312.045 39.1793M312.069 38.1796C305.456 38.0186 301.807 37.955 299.586 38.132C298.463 38.2214 297.635 38.3764 296.94 38.6438C296.23 38.9165 295.721 39.2834 295.22 39.696M312.045 39.1793C298.765 38.856 297.712 38.9369 295.85 40.4725M295.22 39.696L295.226 39.691L295.85 40.4725M295.22 39.696C295.218 39.6976 295.216 39.6993 295.214 39.7009L295.85 40.4725M321.586 69.5489L321.587 69.5485C323.681 68.5863 324.762 66.3574 324.699 63.9368C324.636 61.522 323.431 59.1534 321.235 58.017C320.242 57.5432 318.188 57.1684 316.166 57.049C315.173 56.9904 314.245 56.9972 313.527 57.0708C313.166 57.1078 312.885 57.1591 312.685 57.2165C312.654 57.2254 312.627 57.2339 312.603 57.2418C312.591 57.3014 312.578 57.374 312.564 57.4609C312.502 57.8405 312.444 58.388 312.394 59.0731C312.295 60.4372 312.235 62.2711 312.235 64.2339V70.3462H315.688C316.853 70.3462 318.122 70.2489 319.223 70.0934C320.358 69.9329 321.203 69.7253 321.586 69.5489Z" fill="white" stroke="black" stroke-width="2"/>
</svg>
