<svg width="20" height="20" viewBox="0 0 20 20" fill="none" xmlns="http://www.w3.org/2000/svg">
<path id="Vector" d="M6.95957 2.66041L9.35136 0.268617C9.52341 0.0966215 9.75673 0 10 0C10.2433 0 10.4766 0.0966215 10.6486 0.268617L13.0404 2.66041H16.4221C16.6655 2.66041 16.8988 2.75707 17.0709 2.92912C17.2429 3.10118 17.3396 3.33453 17.3396 3.57786V6.95957L19.7314 9.35136C19.9034 9.52341 20 9.75673 20 10C20 10.2433 19.9034 10.4766 19.7314 10.6486L17.3396 13.0404V16.4221C17.3396 16.6655 17.2429 16.8988 17.0709 17.0709C16.8988 17.2429 16.6655 17.3396 16.4221 17.3396H13.0404L10.6486 19.7314C10.4766 19.9034 10.2433 20 10 20C9.75673 20 9.52341 19.9034 9.35136 19.7314L6.95957 17.3396H3.57786C3.33453 17.3396 3.10118 17.2429 2.92912 17.0709C2.75707 16.8988 2.66041 16.6655 2.66041 16.4221V13.0404L0.268617 10.6486C0.0966215 10.4766 0 10.2433 0 10C0 9.75673 0.0966215 9.52341 0.268617 9.35136L2.66041 6.95957V3.57786C2.66041 3.33453 2.75707 3.10118 2.92912 2.92912C3.10118 2.75707 3.33453 2.66041 3.57786 2.66041H6.95957ZM4.49531 4.49531V7.72014L2.21544 10L4.49531 12.2799V15.5047H7.72014L10 17.7846L12.2799 15.5047H15.5047V12.2799L17.7846 10L15.5047 7.72014V4.49531H12.2799L10 2.21544L7.72014 4.49531H4.49531ZM10 13.6698C9.02671 13.6698 8.09328 13.2832 7.40506 12.5949C6.71684 11.9067 6.3302 10.9733 6.3302 10C6.3302 9.02671 6.71684 8.09328 7.40506 7.40506C8.09328 6.71684 9.02671 6.3302 10 6.3302C10.9733 6.3302 11.9067 6.71684 12.5949 7.40506C13.2832 8.09328 13.6698 9.02671 13.6698 10C13.6698 10.9733 13.2832 11.9067 12.5949 12.5949C11.9067 13.2832 10.9733 13.6698 10 13.6698ZM10 11.8349C10.4866 11.8349 10.9534 11.6416 11.2975 11.2975C11.6416 10.9534 11.8349 10.4866 11.8349 10C11.8349 9.51335 11.6416 9.04664 11.2975 8.70253C10.9534 8.35842 10.4866 8.1651 10 8.1651C9.51335 8.1651 9.04664 8.35842 8.70253 8.70253C8.35842 9.04664 8.1651 9.51335 8.1651 10C8.1651 10.4866 8.35842 10.9534 8.70253 11.2975C9.04664 11.6416 9.51335 11.8349 10 11.8349Z" fill="#333333"/>
</svg>
