<svg width="24" height="24" viewBox="0 0 24 24" fill="none" xmlns="http://www.w3.org/2000/svg">
<path d="M0.258761 14.4713C-0.0862538 12.8418 -0.0862538 11.1582 0.258761 9.52866C1.5904 9.68462 2.75409 9.24434 3.13319 8.32779C3.51348 7.41004 3.00362 6.27634 1.95031 5.44496C2.85851 4.04893 4.04893 2.85851 5.44496 1.95031C6.27514 3.00242 7.41004 3.51348 8.32779 3.13319C9.24554 2.75289 9.68582 1.5904 9.52866 0.258761C11.1582 -0.0862538 12.8418 -0.0862538 14.4713 0.258761C14.3154 1.5904 14.7557 2.75409 15.6722 3.13319C16.59 3.51348 17.7237 3.00362 18.555 1.95031C19.9511 2.85851 21.1415 4.04893 22.0497 5.44496C20.9976 6.27514 20.4865 7.41004 20.8668 8.32779C21.2471 9.24554 22.4096 9.68582 23.7412 9.52866C24.0863 11.1582 24.0863 12.8418 23.7412 14.4713C22.4096 14.3154 21.2459 14.7557 20.8668 15.6722C20.4865 16.59 20.9964 17.7237 22.0497 18.555C21.1415 19.9511 19.9511 21.1415 18.555 22.0497C17.7249 20.9976 16.59 20.4865 15.6722 20.8668C14.7545 21.2471 14.3142 22.4096 14.4713 23.7412C12.8418 24.0863 11.1582 24.0863 9.52866 23.7412C9.68462 22.4096 9.24434 21.2459 8.32779 20.8668C7.41004 20.4865 6.27634 20.9964 5.44496 22.0497C4.04893 21.1415 2.85851 19.9511 1.95031 18.555C3.00242 17.7249 3.51348 16.59 3.13319 15.6722C2.75289 14.7545 1.5904 14.3142 0.258761 14.4713ZM2.40258 12.2519C3.72223 12.6178 4.81033 13.454 5.35019 14.7545C5.88884 16.0561 5.71009 17.4177 5.03587 18.6078C5.15104 18.7302 5.26981 18.849 5.39218 18.9641C6.58346 18.2899 7.94389 18.1124 9.24554 18.6498C10.546 19.1897 11.3822 20.2778 11.7481 21.5974C11.916 21.6022 12.084 21.6022 12.2519 21.5974C12.6178 20.2778 13.454 19.1897 14.7545 18.6498C16.0561 18.1112 17.4177 18.2899 18.6078 18.9641C18.7302 18.849 18.849 18.7302 18.9641 18.6078C18.2899 17.4165 18.1124 16.0561 18.6498 14.7545C19.1897 13.454 20.2778 12.6178 21.5974 12.2519C21.6022 12.084 21.6022 11.916 21.5974 11.7481C20.2778 11.3822 19.1897 10.546 18.6498 9.24554C18.1112 7.94389 18.2899 6.58226 18.9641 5.39218C18.8485 5.27029 18.7297 5.15148 18.6078 5.03587C17.4165 5.71009 16.0561 5.88764 14.7545 5.35019C13.454 4.81033 12.6178 3.72223 12.2519 2.40258C12.084 2.39814 11.916 2.39814 11.7481 2.40258C11.3822 3.72223 10.546 4.81033 9.24554 5.35019C7.94389 5.88884 6.58226 5.71009 5.39218 5.03587C5.26981 5.15104 5.15104 5.26981 5.03587 5.39218C5.71009 6.58346 5.88764 7.94389 5.35019 9.24554C4.81033 10.546 3.72223 11.3822 2.40258 11.7481C2.39779 11.916 2.39779 12.084 2.40258 12.2519ZM12 15.599C11.0455 15.599 10.13 15.2198 9.4551 14.5449C8.78015 13.8699 8.40097 12.9545 8.40097 12C8.40097 11.0455 8.78015 10.13 9.4551 9.4551C10.13 8.78015 11.0455 8.40097 12 8.40097C12.9545 8.40097 13.8699 8.78015 14.5449 9.4551C15.2198 10.13 15.599 11.0455 15.599 12C15.599 12.9545 15.2198 13.8699 14.5449 14.5449C13.8699 15.2198 12.9545 15.599 12 15.599ZM12 13.1997C12.3182 13.1997 12.6233 13.0733 12.8483 12.8483C13.0733 12.6233 13.1997 12.3182 13.1997 12C13.1997 11.6818 13.0733 11.3767 12.8483 11.1517C12.6233 10.9267 12.3182 10.8003 12 10.8003C11.6818 10.8003 11.3767 10.9267 11.1517 11.1517C10.9267 11.3767 10.8003 11.6818 10.8003 12C10.8003 12.3182 10.9267 12.6233 11.1517 12.8483C11.3767 13.0733 11.6818 13.1997 12 13.1997Z" fill="#333333"/>
</svg>
