<svg width="24" height="24" viewBox="0 0 24 24" fill="none" xmlns="http://www.w3.org/2000/svg">
<path d="M10.8998 2.1001L20.7988 3.5151L22.2128 13.4151L13.0208 22.6071C12.8333 22.7946 12.579 22.8999 12.3138 22.8999C12.0487 22.8999 11.7944 22.7946 11.6068 22.6071L1.70685 12.7071C1.51938 12.5196 1.41406 12.2653 1.41406 12.0001C1.41406 11.7349 1.51938 11.4806 1.70685 11.2931L10.8998 2.1001ZM11.6068 4.2221L3.82785 12.0001L12.3138 20.4851L20.0918 12.7071L19.0318 5.2821L11.6068 4.2221ZM13.7268 10.5861C13.3517 10.2108 13.141 9.70188 13.1411 9.17124C13.1411 8.9085 13.1929 8.64834 13.2935 8.40561C13.3941 8.16289 13.5415 7.94235 13.7273 7.7566C13.9132 7.57084 14.1338 7.42351 14.3765 7.323C14.6193 7.2225 14.8795 7.17079 15.1422 7.17084C15.6728 7.17093 16.1817 7.38182 16.5568 7.7571C16.932 8.13238 17.1427 8.64132 17.1426 9.17195C17.1425 9.70259 16.9316 10.2114 16.5563 10.5866C16.1811 10.9617 15.6721 11.1724 15.1415 11.1724C14.6109 11.1723 14.102 10.9614 13.7268 10.5861Z" fill="#333333"/>
</svg>
