<svg width="37" height="36" viewBox="0 0 37 36" fill="none" xmlns="http://www.w3.org/2000/svg">
<path d="M33.0518 30H3.05176V27H4.55176V16.5465C4.55176 9.0645 10.5968 3 18.0518 3C25.5068 3 31.5518 9.0645 31.5518 16.5465V27H33.0518V30ZM7.55176 27H28.5518V16.5465C28.5518 10.722 23.8508 6 18.0518 6C12.2528 6 7.55176 10.722 7.55176 16.5465V27ZM14.3018 31.5H21.8018C21.8018 32.4946 21.4067 33.4484 20.7034 34.1517C20.0001 34.8549 19.0463 35.25 18.0518 35.25C17.0572 35.25 16.1034 34.8549 15.4001 34.1517C14.6968 33.4484 14.3018 32.4946 14.3018 31.5V31.5Z" fill="#333333"/>
</svg>
