<svg width="50" height="50" viewBox="0 0 50 50" fill="none" xmlns="http://www.w3.org/2000/svg">
<circle cx="25" cy="25" r="25" fill="#EEEEEE"/>
<g clip-path="url(#clip0_620_1413)">
<path d="M18.463 17.433C20.2776 15.8607 22.599 14.9967 25 15C30.523 15 35 19.477 35 25C35 27.136 34.33 29.116 33.19 30.74L30 25H33C33.0001 23.4316 32.5392 21.8978 31.6747 20.5893C30.8101 19.2807 29.5799 18.2552 28.1372 17.6401C26.6944 17.0251 25.1027 16.8477 23.56 17.13C22.0172 17.4123 20.5915 18.1419 19.46 19.228L18.463 17.433ZM31.537 32.567C29.7224 34.1393 27.401 35.0034 25 35C19.477 35 15 30.523 15 25C15 22.864 15.67 20.884 16.81 19.26L20 25H17C16.9999 26.5684 17.4608 28.1022 18.3253 29.4108C19.1899 30.7193 20.4201 31.7449 21.8628 32.3599C23.3056 32.9749 24.8973 33.1523 26.44 32.87C27.9828 32.5877 29.4085 31.8581 30.54 30.772L31.537 32.567Z" fill="#121212"/>
</g>
<defs>
<clipPath id="clip0_620_1413">
<rect width="24" height="24" fill="white" transform="translate(13 13)"/>
</clipPath>
</defs>
</svg>
