<svg width="24" height="24" viewBox="0 0 24 24" fill="none" xmlns="http://www.w3.org/2000/svg">
<path d="M4.96486 5.09593L8.51086 17.5059L11.5509 11.4259L17.1879 9.17093L4.96486 5.09593ZM2.89886 2.29993L21.7049 8.56793C21.8022 8.60019 21.8873 8.6616 21.9485 8.74383C22.0098 8.82606 22.0443 8.92514 22.0473 9.02763C22.0504 9.13013 22.0218 9.23108 21.9656 9.31682C21.9093 9.40255 21.8281 9.46892 21.7329 9.50693L12.9999 12.9999L8.57486 21.8499C8.52983 21.94 8.45863 22.0145 8.37058 22.0634C8.28254 22.1124 8.18176 22.1336 8.08145 22.1243C7.98113 22.115 7.88597 22.0756 7.80842 22.0113C7.73087 21.947 7.67456 21.8608 7.64686 21.7639L2.25986 2.91093C2.2349 2.82334 2.23435 2.7306 2.25824 2.64272C2.28214 2.55484 2.32959 2.47516 2.39546 2.41227C2.46133 2.34939 2.54313 2.30568 2.63202 2.28589C2.72091 2.26609 2.81352 2.27094 2.89986 2.29993H2.89886Z" fill="#212529"/>
</svg>
