<svg width="21" height="21" viewBox="0 0 21 21" fill="none" xmlns="http://www.w3.org/2000/svg">
<path d="M0.215692 12.0627C-0.0718975 10.7044 -0.0718975 9.30097 0.215692 7.94269C1.32569 8.07269 2.29569 7.70569 2.61169 6.94169C2.92869 6.17669 2.50369 5.23169 1.62569 4.53869C2.38273 3.37502 3.37502 2.38273 4.53869 1.62569C5.23069 2.50269 6.17669 2.92869 6.94169 2.61169C7.70669 2.29469 8.07369 1.32569 7.94269 0.215692C9.30097 -0.0718975 10.7044 -0.0718975 12.0627 0.215692C11.9327 1.32569 12.2997 2.29569 13.0637 2.61169C13.8287 2.92869 14.7737 2.50369 15.4667 1.62569C16.6304 2.38273 17.6227 3.37502 18.3797 4.53869C17.5027 5.23069 17.0767 6.17669 17.3937 6.94169C17.7107 7.70669 18.6797 8.07369 19.7897 7.94269C20.0773 9.30097 20.0773 10.7044 19.7897 12.0627C18.6797 11.9327 17.7097 12.2997 17.3937 13.0637C17.0767 13.8287 17.5017 14.7737 18.3797 15.4667C17.6227 16.6304 16.6304 17.6227 15.4667 18.3797C14.7747 17.5027 13.8287 17.0767 13.0637 17.3937C12.2987 17.7107 11.9317 18.6797 12.0627 19.7897C10.7044 20.0773 9.30097 20.0773 7.94269 19.7897C8.07269 18.6797 7.70569 17.7097 6.94169 17.3937C6.17669 17.0767 5.23169 17.5017 4.53869 18.3797C3.37502 17.6227 2.38273 16.6304 1.62569 15.4667C2.50269 14.7747 2.92869 13.8287 2.61169 13.0637C2.29469 12.2987 1.32569 11.9317 0.215692 12.0627ZM2.00269 10.2127C3.10269 10.5177 4.00969 11.2147 4.45969 12.2987C4.90869 13.3837 4.75969 14.5187 4.19769 15.5107C4.29369 15.6127 4.39269 15.7117 4.49469 15.8077C5.48769 15.2457 6.62169 15.0977 7.70669 15.5457C8.79069 15.9957 9.48769 16.9027 9.79269 18.0027C9.93269 18.0067 10.0727 18.0067 10.2127 18.0027C10.5177 16.9027 11.2147 15.9957 12.2987 15.5457C13.3837 15.0967 14.5187 15.2457 15.5107 15.8077C15.6127 15.7117 15.7117 15.6127 15.8077 15.5107C15.2457 14.5177 15.0977 13.3837 15.5457 12.2987C15.9957 11.2147 16.9027 10.5177 18.0027 10.2127C18.0067 10.0727 18.0067 9.93269 18.0027 9.79269C16.9027 9.48769 15.9957 8.79069 15.5457 7.70669C15.0967 6.62169 15.2457 5.48669 15.8077 4.49469C15.7113 4.39309 15.6123 4.29405 15.5107 4.19769C14.5177 4.75969 13.3837 4.90769 12.2987 4.45969C11.2147 4.00969 10.5177 3.10269 10.2127 2.00269C10.0727 1.99899 9.93267 1.99899 9.79269 2.00269C9.48769 3.10269 8.79069 4.00969 7.70669 4.45969C6.62169 4.90869 5.48669 4.75969 4.49469 4.19769C4.39269 4.29369 4.29369 4.39269 4.19769 4.49469C4.75969 5.48769 4.90769 6.62169 4.45969 7.70669C4.00969 8.79069 3.10269 9.48769 2.00269 9.79269C1.99869 9.93269 1.99869 10.0727 2.00269 10.2127ZM10.0027 13.0027C9.20704 13.0027 8.44398 12.6866 7.88137 12.124C7.31876 11.5614 7.00269 10.7983 7.00269 10.0027C7.00269 9.20704 7.31876 8.44398 7.88137 7.88137C8.44398 7.31876 9.20704 7.00269 10.0027 7.00269C10.7983 7.00269 11.5614 7.31876 12.124 7.88137C12.6866 8.44398 13.0027 9.20704 13.0027 10.0027C13.0027 10.7983 12.6866 11.5614 12.124 12.124C11.5614 12.6866 10.7983 13.0027 10.0027 13.0027ZM10.0027 11.0027C10.2679 11.0027 10.5223 10.8973 10.7098 10.7098C10.8973 10.5223 11.0027 10.2679 11.0027 10.0027C11.0027 9.73748 10.8973 9.48312 10.7098 9.29559C10.5223 9.10805 10.2679 9.00269 10.0027 9.00269C9.73748 9.00269 9.48312 9.10805 9.29559 9.29559C9.10805 9.48312 9.00269 9.73748 9.00269 10.0027C9.00269 10.2679 9.10805 10.5223 9.29559 10.7098C9.48312 10.8973 9.73748 11.0027 10.0027 11.0027Z" fill="#222222"/>
</svg>
