<?xml version="1.0" standalone="no"?>
<!DOCTYPE svg PUBLIC "-//W3C//DTD SVG 20010904//EN"
 "http://www.w3.org/TR/2001/REC-SVG-20010904/DTD/svg10.dtd">
<svg version="1.0" xmlns="http://www.w3.org/2000/svg"
 width="530.000000pt" height="202.000000pt" viewBox="0 0 530.000000 202.000000"
 preserveAspectRatio="xMidYMid meet">

<g transform="translate(0.000000,202.000000) scale(0.100000,-0.100000)"
fill="#000000" stroke="none">
<path d="M625 1853 c-287 -61 -481 -342 -424 -615 27 -127 120 -259 232 -326
61 -37 232 -100 343 -127 64 -15 74 -15 108 -1 84 35 79 140 -9 192 -22 13
-85 38 -139 55 -110 36 -199 90 -235 144 -75 112 -53 276 50 370 l33 30 -32
-42 c-84 -109 -94 -210 -29 -307 46 -69 105 -107 230 -147 134 -42 185 -69
230 -118 l37 -41 0 -98 c0 -124 -18 -185 -71 -246 -64 -73 -107 -91 -214 -91
-117 0 -169 24 -238 110 -55 69 -96 95 -150 95 -112 0 -171 -114 -116 -223
100 -195 372 -313 609 -263 228 48 383 203 427 425 22 112 8 215 -43 319 -64
131 -165 209 -344 267 -120 39 -164 66 -189 118 -12 24 -21 54 -21 68 0 40 42
112 80 137 76 51 185 7 243 -98 38 -71 55 -90 94 -106 94 -40 193 25 193 127
0 121 -127 279 -284 353 -116 55 -238 68 -371 39z"/>
<path d="M3103 1755 c-59 -25 -58 -6 -55 -654 2 -390 6 -600 13 -613 15 -29
73 -50 115 -42 60 11 74 41 74 158 l0 101 56 -105 c83 -158 70 -150 244 -150
133 0 148 2 168 20 18 17 22 32 22 78 0 83 -12 95 -99 100 l-71 4 0 89 0 89
68 0 c37 0 72 4 78 8 21 14 34 51 34 97 0 35 -6 51 -25 70 -21 22 -33 25 -90
25 l-65 0 0 85 0 85 68 0 c85 0 101 14 109 93 5 52 4 58 -25 86 l-30 31 -155
0 -155 0 -29 -34 c-17 -18 -44 -58 -62 -89 -18 -31 -35 -58 -39 -61 -4 -2 -6
102 -4 231 2 198 0 239 -13 259 -28 43 -84 59 -132 39z m315 -662 l-50 -97 35
-71 c20 -38 61 -116 92 -172 l56 -103 -28 0 c-30 0 -29 -2 -144 222 l-50 97
21 41 c22 44 109 180 114 180 2 0 -19 -44 -46 -97z"/>
<path d="M4682 1405 c-72 -20 -100 -37 -149 -87 -108 -111 -119 -269 -26 -378
61 -71 130 -101 267 -115 72 -8 106 -36 106 -89 0 -66 -85 -106 -162 -77 -13
5 -45 28 -71 51 -83 73 -183 64 -208 -19 -9 -32 -9 -44 6 -75 25 -53 116 -131
183 -157 78 -31 203 -31 283 0 193 74 265 297 146 453 -52 67 -106 95 -222
112 -117 18 -149 36 -153 88 -8 89 96 125 174 62 59 -47 78 -54 139 -54 48 0
60 4 80 26 46 50 28 113 -51 183 -85 75 -231 107 -342 76z"/>
<path d="M1377 1398 c-35 -26 -38 -73 -32 -488 5 -372 7 -407 24 -430 38 -53
132 -48 169 9 15 22 17 54 15 246 l-2 220 53 -201 c65 -243 73 -270 93 -289
21 -22 210 -21 241 1 l22 15 0 444 0 444 -26 20 c-20 15 -41 21 -80 21 -59 0
-88 -19 -100 -64 -3 -14 -4 -129 -2 -255 1 -127 2 -231 1 -231 -1 0 -7 26 -13
58 -18 88 -78 341 -96 402 -25 87 -31 90 -149 90 -65 0 -107 -4 -118 -12z"/>
<path d="M2052 1393 c-20 -18 -21 -28 -24 -460 -3 -421 -2 -442 16 -462 19
-20 28 -21 293 -21 331 0 310 -9 331 140 l7 55 61 3 60 3 12 -76 c15 -98 24
-112 73 -125 73 -20 139 19 139 81 0 14 -20 140 -45 280 -25 140 -57 324 -72
409 -19 107 -33 160 -45 172 -15 15 -36 18 -123 18 -132 0 -136 -3 -158 -138
-30 -186 -98 -577 -103 -594 -5 -16 -20 -18 -120 -18 l-114 0 0 79 0 78 68 6
c75 7 97 24 108 83 8 43 -1 79 -26 104 -16 16 -34 20 -85 20 l-65 0 0 85 0 85
89 0 c110 0 138 10 156 55 23 55 19 93 -14 126 l-29 29 -185 0 c-161 0 -187
-2 -205 -17z m714 -495 l7 -48 -37 0 c-31 0 -36 3 -32 18 3 9 11 55 18 102
l12 85 13 -55 c7 -30 15 -76 19 -102z"/>
<path d="M3820 1392 l-25 -20 -3 -374 c-4 -434 0 -491 33 -524 20 -20 34 -24
85 -24 97 0 100 6 101 203 l0 162 81 -160 c44 -88 89 -170 101 -182 18 -20 31
-23 92 -23 78 0 105 15 105 59 0 12 -34 87 -75 165 l-75 143 32 14 c50 21 99
69 124 124 34 72 34 199 0 271 -33 72 -79 119 -144 151 -54 26 -66 27 -232 31
-164 4 -177 3 -200 -16z m319 -206 c64 -33 67 -136 4 -165 -13 -6 -48 -11 -78
-11 l-55 0 0 88 c0 49 3 92 7 95 12 12 93 7 122 -7z"/>
</g>
</svg>
