<?xml version="1.0" standalone="no"?>
<!DOCTYPE svg PUBLIC "-//W3C//DTD SVG 20010904//EN"
 "http://www.w3.org/TR/2001/REC-SVG-20010904/DTD/svg10.dtd">
<svg version="1.0" xmlns="http://www.w3.org/2000/svg"
 width="1024.000000pt" height="1024.000000pt" viewBox="0 0 1024.000000 1024.000000"
 preserveAspectRatio="xMidYMid meet">

<g transform="translate(0.000000,1024.000000) scale(0.100000,-0.100000)"
fill="#000000" stroke="none">
<path d="M4160 8470 c-516 -80 -996 -319 -1381 -688 -301 -288 -512 -629 -640
-1038 -67 -216 -83 -339 -84 -649 0 -310 11 -390 90 -632 82 -251 187 -431
345 -596 137 -143 269 -218 474 -271 184 -48 298 -56 816 -56 582 0 709 -7
1330 -75 177 -19 226 -18 276 4 57 26 84 64 84 119 0 38 -5 50 -38 82 -43 43
-73 54 -302 106 -293 66 -401 115 -521 233 -89 90 -127 159 -142 265 -23 161
55 362 173 446 l29 21 -27 -58 c-23 -49 -27 -71 -27 -148 0 -80 4 -97 31 -155
36 -76 114 -165 183 -209 75 -48 157 -77 394 -137 455 -115 608 -185 772 -349
97 -96 141 -170 170 -282 19 -73 19 -213 0 -286 -43 -167 -168 -313 -340 -397
-162 -80 -39 -74 -1560 -81 -959 -4 -1374 -9 -1407 -17 -175 -42 -245 -71
-367 -149 -72 -47 -615 -590 -664 -666 -61 -92 -79 -156 -75 -262 4 -73 10
-101 32 -148 40 -84 132 -178 205 -211 95 -43 149 -48 469 -44 273 4 302 6
362 26 145 48 158 60 757 657 426 423 572 563 600 573 150 53 312 -107 246
-245 -9 -19 -168 -189 -354 -377 -185 -189 -344 -357 -353 -374 -38 -73 -7
-181 65 -229 l43 -28 1010 -3 c1080 -3 1162 0 1395 48 504 102 1012 394 1333
766 256 294 432 637 512 994 74 331 71 684 -9 978 -86 320 -289 638 -498 781
-26 18 -78 47 -115 64 -63 30 -73 32 -182 32 -129 0 -191 -16 -335 -85 -80
-38 -257 -149 -269 -168 -4 -7 12 -13 41 -16 232 -27 385 -99 536 -252 176
-178 286 -417 318 -689 14 -122 9 -180 -16 -180 -10 0 -20 -6 -23 -13 -2 -6
-8 -9 -14 -6 -6 4 -5 -2 1 -15 12 -21 -2 -31 -14 -11 -3 6 -14 9 -23 9 -15 -1
-15 -2 1 -6 9 -2 17 -8 17 -13 0 -5 3 -15 6 -24 4 -10 1 -16 -9 -16 -8 0 -14
8 -13 18 0 10 -5 16 -13 14 -8 -2 -18 3 -22 10 -5 8 -7 -1 -4 -20 2 -23 0 -32
-8 -29 -7 2 -11 11 -9 20 1 8 -2 18 -8 22 -6 3 -7 0 -4 -9 4 -9 -1 -18 -10
-22 -9 -3 -13 -10 -10 -15 3 -5 1 -9 -5 -9 -5 0 -12 14 -16 30 -4 17 -11 27
-16 24 -6 -3 -8 -12 -5 -20 3 -7 1 -16 -3 -19 -11 -6 -23 23 -15 37 3 5 -3 4
-15 -4 -26 -16 -27 -36 -3 -54 16 -13 16 -13 0 -14 -10 0 -18 5 -18 10 0 6 -7
10 -15 10 -8 0 -15 7 -15 16 0 8 -5 12 -11 8 -8 -4 -9 1 -4 17 7 23 7 23 -8 4
-10 -13 -12 -24 -6 -31 6 -8 4 -14 -6 -18 -9 -3 -13 -2 -10 4 3 6 1 10 -5 10
-6 0 -8 6 -4 13 5 9 4 9 -6 0 -7 -6 -19 -9 -26 -6 -10 4 -12 0 -8 -13 4 -14 3
-16 -4 -5 -5 7 -15 10 -21 7 -6 -4 -15 3 -21 16 -8 18 -9 14 -5 -22 4 -33 2
-40 -4 -25 -6 11 -7 56 -4 100 7 100 -11 278 -38 381 -67 257 -239 506 -452
658 -56 39 -71 45 -83 36 -8 -7 -49 -67 -91 -134 -156 -248 -163 -256 -237
-256 -65 0 -133 82 -123 148 6 32 102 186 204 326 35 49 40 62 30 75 -19 24
-249 171 -258 165 -5 -2 -64 -89 -132 -193 -69 -103 -132 -191 -142 -194 -29
-12 -95 -8 -124 7 -52 28 -78 91 -59 147 11 35 153 250 214 326 19 23 34 44
34 46 0 13 -243 177 -261 177 -8 0 -72 -85 -142 -189 -80 -119 -136 -192 -150
-197 -76 -24 -157 14 -178 85 -10 32 -8 44 8 82 38 85 244 361 345 461 l97 97
-97 68 c-53 37 -144 101 -202 143 -146 106 -172 120 -228 127 -37 4 -60 0 -94
-15 -151 -66 -172 -244 -51 -427 18 -27 33 -54 33 -60 -1 -14 -114 -97 -190
-138 -153 -84 -378 -117 -550 -83 -153 31 -230 72 -405 211 -133 107 -186 130
-290 129 -138 -2 -246 -70 -304 -194 -26 -55 -26 -56 -29 -356 l-3 -302 68
-12 c124 -23 377 -80 428 -97 135 -44 270 -149 337 -264 35 -59 70 -149 59
-149 -5 0 -33 11 -63 24 -104 46 -233 79 -657 165 l-426 88 0 419 c0 464 2
480 63 604 49 101 169 223 264 268 130 63 290 79 433 42 82 -21 192 -75 236
-116 14 -13 29 -24 35 -24 5 0 24 25 41 54 98 161 302 315 498 376 162 50 173
50 1495 50 1338 0 1328 0 1489 55 98 33 191 85 271 151 110 90 623 606 661
664 50 77 72 149 71 237 -2 193 -120 345 -313 404 -63 19 -87 20 -396 16 -348
-4 -362 -6 -464 -57 -24 -13 -64 -36 -89 -53 -25 -17 -297 -281 -605 -587
-308 -307 -576 -565 -595 -575 -51 -26 -131 -22 -183 8 -83 49 -112 158 -66
250 14 27 142 161 360 377 230 228 343 347 354 372 39 95 -2 200 -97 249 -36
18 -73 19 -1065 18 -936 -1 -1038 -2 -1143 -19z m3410 -4074 c0 -2 -9 -6 -20
-9 -11 -3 -20 -1 -20 4 0 5 9 9 20 9 11 0 20 -2 20 -4z"/>
<path d="M6165 6446 c-49 -16 -329 -155 -408 -203 l-59 -35 39 -23 c55 -31
164 -104 190 -127 l22 -20 90 51 c50 28 141 75 203 104 62 29 120 62 128 72
22 27 18 86 -9 123 -41 58 -122 83 -196 58z"/>
<path d="M6754 6160 c-52 -11 -259 -102 -438 -193 -116 -59 -136 -73 -121 -82
68 -40 202 -130 223 -150 l25 -24 31 24 c38 29 286 151 384 191 75 30 102 57
102 104 0 28 -22 70 -52 97 -19 18 -91 45 -108 42 -3 -1 -23 -5 -46 -9z"/>
<path d="M5726 4494 c-16 -140 -110 -250 -256 -300 -78 -27 -275 -24 -560 9
-384 45 -457 49 -1105 57 -350 5 -658 13 -692 19 -132 22 -271 54 -330 76 -35
12 -63 19 -63 14 0 -28 96 -164 165 -234 70 -71 95 -89 195 -139 204 -101 129
-96 1401 -96 1064 0 1099 1 1160 20 175 54 291 206 276 358 -8 76 -56 169
-116 226 -28 25 -54 46 -59 46 -5 0 -12 -25 -16 -56z"/>
<path d="M7361 4385 c0 -13 28 -62 30 -52 1 4 2 10 3 15 1 4 5 13 10 21 7 11
5 13 -9 7 -11 -4 -22 -2 -27 6 -4 7 -8 9 -7 3z"/>
<path d="M7140 4330 c-9 -6 -10 -10 -3 -10 6 0 15 5 18 10 8 12 4 12 -15 0z"/>
<path d="M5030 1149 c0 -5 9 -9 20 -9 11 0 20 2 20 4 0 2 -9 6 -20 9 -11 3
-20 1 -20 -4z"/>
<path d="M5215 1150 c-3 -5 -1 -10 4 -10 6 0 11 5 11 10 0 6 -2 10 -4 10 -3 0
-8 -4 -11 -10z"/>
<path d="M5103 1143 c9 -2 23 -2 30 0 6 3 -1 5 -18 5 -16 0 -22 -2 -12 -5z"/>
</g>
</svg>
