<?xml version="1.0" encoding="UTF-8"?>
<svg id="Layer_1" data-name="Layer 1" xmlns="http://www.w3.org/2000/svg" viewBox="0 0 500 500">
  <path d="M274.98,207.45c0-14.45-11.72-26.17-26.17-26.17h-.07c-14.45,0-26.17,11.72-26.17,26.17v40.19c0,.96,.78,1.75,1.75,1.75h16.25c.96,0,1.75-.78,1.75-1.75v-10.02c0-.96,.78-1.75,1.75-1.75h9.45c.96,0,1.75,.78,1.75,1.75v10.02c0,.96,.78,1.75,1.75,1.75h16.25c.96,0,1.75-.78,1.75-1.75l-.02-40.19Zm-25.13,9.61c-5.4,.68-9.94-3.86-9.26-9.26,.46-3.68,3.43-6.65,7.11-7.11,5.4-.68,9.94,3.86,9.26,9.26-.46,3.68-3.43,6.65-7.11,7.11Z"/>
  <path d="M277.43,277.48v-.07c0-14.16-11.48-25.06-25.65-25.06l-27.48,.03c-.96,0-1.75,.78-1.75,1.75v62.86c0,.96,.78,1.75,1.75,1.75h14.5c.96,0,1.75-.78,1.75-1.75v-12.58c0-.31,.42-.41,.55-.13l6.5,13.46c.29,.6,.9,.99,1.57,.99h24.36c.96,0,1.75-.78,1.75-1.75v-12.5c0-.96-.78-1.75-1.75-1.75h-14.58c-.36,0-.42-.5-.08-.6,10.71-3.08,18.55-12.94,18.55-24.64Zm-27.06,8.34c-5.4,.68-9.94-3.86-9.26-9.26,.46-3.68,3.43-6.65,7.11-7.11,5.4-.68,9.94,3.86,9.26,9.26-.46,3.68-3.44,6.65-7.11,7.11Z"/>
</svg>