<?xml version="1.0" encoding="UTF-8"?>
<svg id="Layer_1" data-name="Layer 1" xmlns="http://www.w3.org/2000/svg" viewBox="0 0 500 500">
  <g>
    <path d="M294.81,183.07v21.63c0,.96-.78,1.75-1.75,1.75h-8.28c-.96,0-1.75-.78-1.75-1.75v-21.63c0-.96-.78-1.75-1.75-1.75h-15.08c-.96,0-1.75,.78-1.75,1.75v62.85c0,.96,.78,1.75,1.75,1.75h15.08c.96,0,1.75-.78,1.75-1.75v-21.18c0-.96,.78-1.75,1.75-1.75h8.28c.96,0,1.75,.78,1.75,1.75v21.18c0,.96,.78,1.75,1.75,1.75h15.08c.96,0,1.75-.78,1.75-1.75v-62.85c0-.96-.78-1.75-1.75-1.75h-15.08c-.96,0-1.75,.78-1.75,1.75Z"/>
    <path d="M159.73,205.74c0-14.45-11.72-26.17-26.17-26.17h-.07c-14.45,0-26.17,11.72-26.17,26.17v40.19c0,.96,.78,1.75,1.75,1.75h16.25c.96,0,1.75-.78,1.75-1.75v-10.02c0-.96,.78-1.75,1.75-1.75h9.45c.96,0,1.75,.78,1.75,1.75v10.02c0,.96,.78,1.75,1.75,1.75h16.25c.96,0,1.75-.78,1.75-1.75l-.02-40.19Zm-25.13,9.61c-5.4,.68-9.94-3.86-9.26-9.26,.46-3.68,3.43-6.65,7.11-7.11,5.4-.68,9.94,3.86,9.26,9.26-.46,3.68-3.43,6.65-7.11,7.11Z"/>
    <path d="M236.32,181.25l-28.7,.02c-.96,0-1.75,.78-1.75,1.75v62.91c0,.96,.78,1.75,1.75,1.75h15.72c.96,0,1.75-.78,1.75-1.75v-12.15c0-.96,.78-1.75,1.75-1.75h9.48c14.16,0,25.65-11.48,25.65-25.65v-.07c0-14.16-11.48-25.06-25.65-25.06Zm-2.49,33.65c-4.56,0-8.25-3.7-8.25-8.25s3.7-8.25,8.25-8.25,8.25,3.7,8.25,8.25-3.7,8.25-8.25,8.25Z"/>
    <path d="M180.45,228.15v-45.08c0-.96-.78-1.75-1.75-1.75h-14.5c-.96,0-1.75,.78-1.75,1.75v62.85c0,.96,.78,1.75,1.75,1.75h37.37c.96,0,1.75-.78,1.75-1.75v-14.28c0-.96-.78-1.75-1.75-1.75h-19.37c-.96,0-1.75-.78-1.75-1.75Z"/>
    <path d="M369.82,205.74c0-14.45-11.72-26.17-26.17-26.17h-.07c-14.45,0-26.17,11.72-26.17,26.17v40.19c0,.96,.78,1.75,1.75,1.75h16.25c.96,0,1.75-.78,1.75-1.75v-10.02c0-.96,.78-1.75,1.75-1.75h9.45c.96,0,1.75,.78,1.75,1.75v10.02c0,.96,.78,1.75,1.75,1.75h16.25c.96,0,1.75-.78,1.75-1.75l-.02-40.19Zm-25.13,9.61c-5.4,.68-9.94-3.86-9.26-9.26,.46-3.68,3.43-6.65,7.11-7.11,5.4-.68,9.94,3.86,9.26,9.26-.46,3.68-3.43,6.65-7.11,7.11Z"/>
  </g>
  <g>
    <path d="M217.2,277.09c0-14.45-11.72-26.17-26.17-26.17h-.07c-14.45,0-26.17,11.72-26.17,26.17v40.19c0,.96,.78,1.75,1.75,1.75h16.25c.96,0,1.75-.78,1.75-1.75v-10.02c0-.96,.78-1.75,1.75-1.75h9.45c.96,0,1.75,.78,1.75,1.75v10.02c0,.96,.78,1.75,1.75,1.75h16.25c.96,0,1.75-.78,1.75-1.75l-.02-40.19Zm-25.13,9.61c-5.4,.68-9.94-3.86-9.26-9.26,.46-3.68,3.43-6.65,7.11-7.11,5.4-.68,9.94,3.86,9.26,9.26-.46,3.68-3.43,6.65-7.11,7.11Z"/>
    <path d="M326.12,299.91v-45.08c0-.96-.78-1.75-1.75-1.75h-14.5c-.96,0-1.75,.78-1.75,1.75v62.85c0,.96,.78,1.75,1.75,1.75h37.37c.96,0,1.75-.78,1.75-1.75v-14.28c0-.96-.78-1.75-1.75-1.75h-19.37c-.96,0-1.75-.78-1.75-1.75Z"/>
    <path d="M261.26,267.76v-13.05c0-.96-.78-1.75-1.75-1.75h-37.37c-.96,0-1.75,.78-1.75,1.75v62.97c0,.96,.78,1.75,1.75,1.75h14.5c.96,0,1.75-.78,1.75-1.75v-21.94c0-.32,.26-.58,.58-.58h18.89c.96,0,1.75-.78,1.75-1.75v-12.56c0-.96-.78-1.75-1.75-1.75h-18.89c-.32,0-.58-.26-.58-.58v-8.44c0-.32,.26-.58,.58-.58h20.54c.96,0,1.75-.78,1.75-1.75Z"/>
    <path d="M304.72,267.76v-13.05c0-.96-.78-1.75-1.75-1.75h-37.37c-.96,0-1.75,.78-1.75,1.75v62.97c0,.96,.78,1.75,1.75,1.75h14.5c.96,0,1.75-.78,1.75-1.75v-21.94c0-.32,.26-.58,.58-.58h18.89c.96,0,1.75-.78,1.75-1.75v-12.56c0-.96-.78-1.75-1.75-1.75h-18.89c-.32,0-.58-.26-.58-.58v-8.44c0-.32,.26-.58,.58-.58h20.54c.96,0,1.75-.78,1.75-1.75Z"/>
    <path d="M393.69,267.76v-13.05c0-.96-.78-1.75-1.75-1.75h-37.37c-.96,0-1.75,.78-1.75,1.75v62.97c0,.96,.78,1.75,1.75,1.75h37.37c.96,0,1.75-.78,1.75-1.75v-13.05c0-.96-.78-1.75-1.75-1.75h-20.54c-.32,0-.58-.26-.58-.58v-7.5c0-.32,.26-.58,.58-.58h18.89c.96,0,1.75-.78,1.75-1.75v-12.56c0-.96-.78-1.75-1.75-1.75h-18.89c-.32,0-.58-.26-.58-.58v-7.5c0-.32,.26-.58,.58-.58h20.54c.96,0,1.75-.78,1.75-1.75Z"/>
    <path d="M162.18,278.05v-.07c0-14.16-11.48-25.06-25.65-25.06l-27.48,.03c-.96,0-1.75,.78-1.75,1.75v62.86c0,.96,.78,1.75,1.75,1.75h14.5c.96,0,1.75-.78,1.75-1.75v-12.58c0-.31,.42-.41,.55-.13l6.5,13.46c.29,.6,.9,.99,1.57,.99h24.36c.96,0,1.75-.78,1.75-1.75v-12.5c0-.96-.78-1.75-1.75-1.75h-14.58c-.36,0-.42-.5-.08-.6,10.71-3.08,18.55-12.94,18.55-24.64Zm-27.06,8.34c-5.4,.68-9.94-3.86-9.26-9.26,.46-3.68,3.43-6.65,7.11-7.11,5.4-.68,9.94,3.86,9.26,9.26-.46,3.68-3.44,6.65-7.11,7.11Z"/>
  </g>
</svg>