<svg width="12" height="16" viewBox="0 0 12 16" fill="none" xmlns="http://www.w3.org/2000/svg">
<mask id="path-1-inside-1_84_2649" fill="white">
<path d="M0.75 0.5H11.25C11.4489 0.5 11.6397 0.576554 11.7803 0.712821C11.921 0.849088 12 1.03391 12 1.22662V15.1362C12.0001 15.2012 11.9822 15.265 11.9482 15.321C11.9142 15.377 11.8653 15.4231 11.8066 15.4546C11.7479 15.486 11.6816 15.5017 11.6146 15.4999C11.5476 15.4981 11.4823 15.4789 11.4255 15.4443L6 12.1477L0.5745 15.4436C0.517776 15.4781 0.452541 15.4973 0.385576 15.4991C0.318612 15.501 0.252365 15.4854 0.193721 15.454C0.135078 15.4226 0.0861801 15.3766 0.0521121 15.3207C0.0180441 15.2648 4.98531e-05 15.2011 0 15.1362V1.22662C0 1.03391 0.0790178 0.849088 0.21967 0.712821C0.360322 0.576554 0.551088 0.5 0.75 0.5Z"/>
</mask>
<path d="M0.75 0.5V-1V0.5ZM11.25 0.5V-1V0.5ZM12 15.1362H10.5L10.5 15.1382L12 15.1362ZM11.4255 15.4443L12.2054 14.163L12.2044 14.1624L11.4255 15.4443ZM6 12.1477L6.77892 10.8658L6.00009 10.3925L5.22121 10.8657L6 12.1477ZM0.5745 15.4436L-0.204292 14.1616L-0.205425 14.1623L0.5745 15.4436ZM0 15.1362H-1.5L-1.5 15.1374L0 15.1362ZM0.75 2H11.25V-1H0.75V2ZM11.25 2C11.0661 2 10.8806 1.92969 10.7366 1.79014L12.8241 -0.364501C12.3987 -0.776581 11.8317 -1 11.25 -1V2ZM10.7366 1.79014C10.5909 1.64903 10.5 1.44733 10.5 1.22662H13.5C13.5 0.620478 13.251 0.0491461 12.8241 -0.364501L10.7366 1.79014ZM10.5 1.22662V15.1362H13.5V1.22662H10.5ZM10.5 15.1382C10.4997 14.9254 10.5585 14.7194 10.6662 14.5421L13.2301 16.0998C13.4058 15.8106 13.5004 15.477 13.5 15.1343L10.5 15.1382ZM10.6662 14.5421C10.7737 14.3653 10.9243 14.2256 11.0977 14.1326L12.5155 16.7765C12.8062 16.6206 13.0547 16.3886 13.2301 16.0998L10.6662 14.5421ZM11.0977 14.1326C11.2708 14.0398 11.463 13.9952 11.6549 14.0004L11.5743 16.9993C11.9003 17.0081 12.2251 16.9322 12.5155 16.7765L11.0977 14.1326ZM11.6549 14.0004C11.8468 14.0056 12.0368 14.0604 12.2054 14.163L10.6456 16.7256C10.9277 16.8974 11.2484 16.9906 11.5743 16.9993L11.6549 14.0004ZM12.2044 14.1624L6.77892 10.8658L5.22108 13.4296L10.6466 16.7262L12.2044 14.1624ZM5.22121 10.8657L-0.204292 14.1616L1.35329 16.7256L6.77879 13.4296L5.22121 10.8657ZM-0.205425 14.1623C-0.0369695 14.0598 0.152872 14.0049 0.344588 13.9997L0.426565 16.9986C0.752209 16.9897 1.07252 16.8965 1.35442 16.7249L-0.205425 14.1623ZM0.344588 13.9997C0.536291 13.9944 0.728297 14.0388 0.901322 14.1314L-0.513879 16.7766C-0.223568 16.9319 0.100933 17.0075 0.426565 16.9986L0.344588 13.9997ZM0.901322 14.1314C1.07462 14.2241 1.22529 14.3635 1.33288 14.5399L-1.22865 16.1015C-1.05293 16.3898 -0.804467 16.6212 -0.513879 16.7766L0.901322 14.1314ZM1.33288 14.5399C1.44072 14.7168 1.49984 14.9225 1.5 15.1351L-1.5 15.1374C-1.49974 15.4798 -1.40463 15.8129 -1.22865 16.1015L1.33288 14.5399ZM1.5 15.1362V1.22662H-1.5V15.1362H1.5ZM1.5 1.22662C1.5 1.44734 1.40905 1.64903 1.2634 1.79014L-0.824063 -0.364501C-1.25102 0.0491434 -1.5 0.620474 -1.5 1.22662H1.5ZM1.2634 1.79014C1.11937 1.92969 0.933852 2 0.75 2V-1C0.168323 -1 -0.398722 -0.77658 -0.824063 -0.364501L1.2634 1.79014Z" fill="#959595" mask="url(#path-1-inside-1_84_2649)"/>
</svg>
